<svg xmlns="http://www.w3.org/2000/svg" xmlns:xlink="http://www.w3.org/1999/xlink" width="145" zoomAndPan="magnify" viewBox="0 0 108.75 30.000001" height="40" preserveAspectRatio="xMidYMid meet" version="1.0"><defs><g/><clipPath id="f88b0b14a0"><path d="M 1.632812 0 L 106.875 0 L 106.875 29.03125 L 1.632812 29.03125 Z M 1.632812 0 " clip-rule="nonzero"/></clipPath><clipPath id="70f2049df1"><path d="M 0.632812 0 L 105.875 0 L 105.875 29.03125 L 0.632812 29.03125 Z M 0.632812 0 " clip-rule="nonzero"/></clipPath><clipPath id="c86c0305d1"><rect x="0" width="106" y="0" height="30"/></clipPath><clipPath id="db6101815c"><path d="M 5.996094 4.371094 L 26.199219 4.371094 L 26.199219 24.730469 L 5.996094 24.730469 Z M 5.996094 4.371094 " clip-rule="nonzero"/></clipPath><clipPath id="7d2b5b315c"><path d="M 8.859375 4.371094 L 23.332031 4.371094 C 24.914062 4.371094 26.199219 5.652344 26.199219 7.234375 L 26.199219 21.796875 C 26.199219 23.378906 24.914062 24.664062 23.332031 24.664062 L 8.859375 24.664062 C 7.277344 24.664062 5.996094 23.378906 5.996094 21.796875 L 5.996094 7.234375 C 5.996094 5.652344 7.277344 4.371094 8.859375 4.371094 Z M 8.859375 4.371094 " clip-rule="nonzero"/></clipPath><clipPath id="cec024dda2"><path d="M 0.996094 0.371094 L 21.199219 0.371094 L 21.199219 20.730469 L 0.996094 20.730469 Z M 0.996094 0.371094 " clip-rule="nonzero"/></clipPath><clipPath id="ae6032b5b8"><path d="M 3.859375 0.371094 L 18.332031 0.371094 C 19.914062 0.371094 21.199219 1.652344 21.199219 3.234375 L 21.199219 17.796875 C 21.199219 19.378906 19.914062 20.664062 18.332031 20.664062 L 3.859375 20.664062 C 2.277344 20.664062 0.996094 19.378906 0.996094 17.796875 L 0.996094 3.234375 C 0.996094 1.652344 2.277344 0.371094 3.859375 0.371094 Z M 3.859375 0.371094 " clip-rule="nonzero"/></clipPath><clipPath id="be75b2c089"><rect x="0" width="22" y="0" height="21"/></clipPath><clipPath id="a375ebc46b"><path d="M 18.394531 13 L 20 13 L 20 16 L 18.394531 16 Z M 18.394531 13 " clip-rule="nonzero"/></clipPath><clipPath id="7e69f56723"><path d="M 20 10.941406 L 23.476562 10.941406 L 23.476562 18.199219 L 20 18.199219 Z M 20 10.941406 " clip-rule="nonzero"/></clipPath><clipPath id="7c3e36c121"><path d="M 1 3 L 9.660156 3 L 9.660156 14 L 1 14 Z M 1 3 " clip-rule="nonzero"/></clipPath><clipPath id="e927aed5e8"><rect x="0" width="10" y="0" height="18"/></clipPath><clipPath id="54a2492fe1"><path d="M 23 0.277344 L 24 0.277344 L 24 4 L 23 4 Z M 23 0.277344 " clip-rule="nonzero"/></clipPath><clipPath id="a7b2b628d8"><path d="M 73 2 L 74.664062 2 L 74.664062 4 L 73 4 Z M 73 2 " clip-rule="nonzero"/></clipPath><clipPath id="49a2abe7f9"><rect x="0" width="75" y="0" height="5"/></clipPath><clipPath id="4831f6578f"><rect x="0" width="75" y="0" height="16"/></clipPath></defs><g clip-path="url(#f88b0b14a0)"><path fill="#ffffff" d="M 1.632812 0 L 106.875 0 L 106.875 29.03125 L 1.632812 29.03125 Z M 1.632812 0 " fill-opacity="1" fill-rule="nonzero"/><path fill="#ffffff" d="M 1.632812 0 L 106.875 0 L 106.875 29.03125 L 1.632812 29.03125 Z M 1.632812 0 " fill-opacity="1" fill-rule="nonzero"/><g transform="matrix(1, 0, 0, 1, 1, 0.000000000000005692)"><g clip-path="url(#c86c0305d1)"><g clip-path="url(#70f2049df1)"><rect x="-24.925" width="156.6" fill="#153e90" height="43.200001" y="-6.6" fill-opacity="1"/></g></g></g></g><g clip-path="url(#db6101815c)"><g clip-path="url(#7d2b5b315c)"><g transform="matrix(1, 0, 0, 1, 5, 4)"><g clip-path="url(#be75b2c089)"><g clip-path="url(#cec024dda2)"><g clip-path="url(#ae6032b5b8)"><path fill="#ffffff" d="M 0.996094 0.371094 L 21.199219 0.371094 L 21.199219 20.652344 L 0.996094 20.652344 Z M 0.996094 0.371094 " fill-opacity="1" fill-rule="nonzero"/></g></g></g></g></g></g><g clip-path="url(#a375ebc46b)"><path fill="#153e90" d="M 19.484375 14.515625 C 19.484375 14.957031 19.382812 15.332031 18.941406 15.332031 C 18.496094 15.332031 18.394531 14.957031 18.394531 14.515625 C 18.394531 14.074219 18.464844 13.699219 18.941406 13.699219 C 19.417969 13.699219 19.484375 14.074219 19.484375 14.515625 Z M 19.484375 14.515625 " fill-opacity="1" fill-rule="nonzero"/></g><path fill="#153e90" d="M 20.574219 16.488281 L 20.605469 16.453125 L 20.640625 16.421875 L 20.675781 16.386719 C 21.628906 15.332031 21.59375 13.699219 20.574219 12.679688 L 20.265625 12.371094 C 20.0625 12.167969 19.722656 12.167969 19.519531 12.371094 C 19.316406 12.574219 19.316406 12.917969 19.519531 13.121094 L 19.789062 13.390625 C 20.4375 14.039062 20.4375 15.09375 19.789062 15.738281 L 19.585938 15.945312 C 19.382812 16.148438 19.382812 16.453125 19.585938 16.660156 C 19.6875 16.761719 19.824219 16.792969 19.960938 16.792969 C 20.097656 16.792969 20.234375 16.726562 20.335938 16.660156 Z M 20.574219 16.488281 " fill-opacity="1" fill-rule="nonzero"/><g clip-path="url(#7e69f56723)"><path fill="#153e90" d="M 21.59375 17.917969 L 21.765625 17.746094 L 21.898438 17.609375 L 21.96875 17.542969 C 23.464844 15.773438 23.429688 13.121094 21.796875 11.453125 C 21.796875 11.453125 21.796875 11.417969 21.765625 11.417969 L 21.492188 11.113281 C 21.320312 10.941406 21.015625 10.941406 20.8125 11.113281 C 20.640625 11.28125 20.640625 11.589844 20.8125 11.792969 L 21.117188 12.097656 C 22.445312 13.460938 22.445312 15.636719 21.152344 17 L 20.914062 17.238281 C 20.742188 17.40625 20.742188 17.714844 20.914062 17.917969 C 21.082031 18.085938 21.390625 18.085938 21.59375 17.917969 Z M 21.59375 17.917969 " fill-opacity="1" fill-rule="nonzero"/></g><g transform="matrix(1, 0, 0, 1, 8, 6)"><g clip-path="url(#e927aed5e8)"><g clip-path="url(#7c3e36c121)"><g fill="#153e90" fill-opacity="1"><g transform="translate(0.635178, 12.068112)"><g><path d="M 2.171875 1.578125 L 0.609375 0.03125 L 0.625 -8.71875 L 4.25 -8.71875 C 4.695312 -8.71875 5.09375 -8.644531 5.4375 -8.5 C 5.789062 -8.363281 6.070312 -8.191406 6.28125 -7.984375 L 7.515625 -6.75 C 7.671875 -6.601562 7.8125 -6.445312 7.9375 -6.28125 C 8.0625 -6.113281 8.160156 -5.921875 8.234375 -5.703125 C 8.304688 -5.492188 8.34375 -5.242188 8.34375 -4.953125 C 8.34375 -4.609375 8.265625 -4.28125 8.109375 -3.96875 C 7.960938 -3.664062 7.753906 -3.410156 7.484375 -3.203125 L 7.8125 -2.875 C 8.113281 -2.570312 8.328125 -2.28125 8.453125 -2 C 8.585938 -1.726562 8.65625 -1.421875 8.65625 -1.078125 C 8.65625 -0.546875 8.53125 -0.0820312 8.28125 0.3125 C 8.039062 0.707031 7.703125 1.015625 7.265625 1.234375 C 6.828125 1.460938 6.316406 1.578125 5.734375 1.578125 Z M 0.78125 -0.09375 L 4.234375 -0.09375 C 4.804688 -0.09375 5.304688 -0.191406 5.734375 -0.390625 C 6.160156 -0.585938 6.492188 -0.863281 6.734375 -1.21875 C 6.972656 -1.570312 7.09375 -1.984375 7.09375 -2.453125 C 7.09375 -2.929688 6.96875 -3.335938 6.71875 -3.671875 C 6.46875 -4.015625 6.109375 -4.285156 5.640625 -4.484375 C 6.015625 -4.679688 6.296875 -4.9375 6.484375 -5.25 C 6.679688 -5.5625 6.78125 -5.925781 6.78125 -6.34375 C 6.78125 -6.769531 6.671875 -7.148438 6.453125 -7.484375 C 6.242188 -7.816406 5.945312 -8.078125 5.5625 -8.265625 C 5.1875 -8.453125 4.75 -8.546875 4.25 -8.546875 L 0.796875 -8.546875 Z M 1.8125 -4.859375 L 1.8125 -7.625 L 4.171875 -7.625 C 4.472656 -7.625 4.738281 -7.566406 4.96875 -7.453125 C 5.207031 -7.335938 5.390625 -7.179688 5.515625 -6.984375 C 5.648438 -6.785156 5.71875 -6.550781 5.71875 -6.28125 C 5.71875 -6 5.648438 -5.75 5.515625 -5.53125 C 5.390625 -5.320312 5.207031 -5.15625 4.96875 -5.03125 C 4.738281 -4.914062 4.46875 -4.859375 4.15625 -4.859375 Z M 3.40625 -5.03125 L 4.15625 -5.03125 C 4.539062 -5.03125 4.851562 -5.125 5.09375 -5.3125 C 5.34375 -5.5 5.488281 -5.753906 5.53125 -6.078125 L 3.40625 -6.078125 Z M 1.8125 -1.015625 L 1.8125 -3.96875 L 4.296875 -3.96875 C 4.648438 -3.96875 4.953125 -3.90625 5.203125 -3.78125 C 5.460938 -3.65625 5.660156 -3.484375 5.796875 -3.265625 C 5.941406 -3.046875 6.015625 -2.785156 6.015625 -2.484375 C 6.015625 -2.023438 5.835938 -1.664062 5.484375 -1.40625 C 5.128906 -1.144531 4.640625 -1.015625 4.015625 -1.015625 Z M 3.40625 -1.1875 L 4.015625 -1.1875 C 4.578125 -1.1875 5.015625 -1.296875 5.328125 -1.515625 C 5.648438 -1.734375 5.820312 -2.039062 5.84375 -2.4375 L 3.40625 -2.4375 Z M 3.40625 -1.1875 "/></g></g></g></g></g></g><g transform="matrix(1, 0, 0, 1, 28, 19)"><g clip-path="url(#49a2abe7f9)"><g fill="#ffffff" fill-opacity="1"><g transform="translate(1.057693, 3.264279)"><g><path d="M 0.671875 -1.671875 L 0.015625 -1.671875 L 0.015625 -2.0625 L 1.796875 -2.0625 L 1.796875 -1.671875 L 1.140625 -1.671875 L 1.140625 0 L 0.671875 0 Z M 0.671875 -1.671875 "/></g></g></g><g fill="#ffffff" fill-opacity="1"><g transform="translate(2.876837, 3.264279)"><g><path d="M 1.171875 -1.609375 C 1.367188 -1.609375 1.523438 -1.546875 1.640625 -1.421875 C 1.765625 -1.304688 1.828125 -1.132812 1.828125 -0.90625 L 1.828125 0 L 1.375 0 L 1.375 -0.828125 C 1.375 -0.953125 1.34375 -1.046875 1.28125 -1.109375 C 1.226562 -1.171875 1.148438 -1.203125 1.046875 -1.203125 C 0.929688 -1.203125 0.835938 -1.164062 0.765625 -1.09375 C 0.703125 -1.03125 0.671875 -0.925781 0.671875 -0.78125 L 0.671875 0 L 0.21875 0 L 0.21875 -2.171875 L 0.671875 -2.171875 L 0.671875 -1.421875 C 0.734375 -1.472656 0.804688 -1.515625 0.890625 -1.546875 C 0.972656 -1.585938 1.066406 -1.609375 1.171875 -1.609375 Z M 1.171875 -1.609375 "/></g></g></g><g fill="#ffffff" fill-opacity="1"><g transform="translate(4.910864, 3.264279)"><g><path d="M 1.765625 -0.78125 C 1.765625 -0.78125 1.757812 -0.738281 1.75 -0.65625 L 0.5625 -0.65625 C 0.582031 -0.5625 0.628906 -0.484375 0.703125 -0.421875 C 0.785156 -0.367188 0.882812 -0.34375 1 -0.34375 C 1.082031 -0.34375 1.15625 -0.351562 1.21875 -0.375 C 1.289062 -0.40625 1.351562 -0.445312 1.40625 -0.5 L 1.640625 -0.234375 C 1.492188 -0.0546875 1.28125 0.03125 1 0.03125 C 0.820312 0.03125 0.660156 -0.00390625 0.515625 -0.078125 C 0.378906 -0.148438 0.273438 -0.25 0.203125 -0.375 C 0.128906 -0.5 0.09375 -0.640625 0.09375 -0.796875 C 0.09375 -0.941406 0.128906 -1.078125 0.203125 -1.203125 C 0.273438 -1.328125 0.375 -1.425781 0.5 -1.5 C 0.632812 -1.570312 0.78125 -1.609375 0.9375 -1.609375 C 1.09375 -1.609375 1.234375 -1.570312 1.359375 -1.5 C 1.484375 -1.4375 1.582031 -1.34375 1.65625 -1.21875 C 1.726562 -1.09375 1.765625 -0.945312 1.765625 -0.78125 Z M 0.9375 -1.25 C 0.832031 -1.25 0.742188 -1.21875 0.671875 -1.15625 C 0.609375 -1.101562 0.566406 -1.023438 0.546875 -0.921875 L 1.328125 -0.921875 C 1.304688 -1.023438 1.257812 -1.101562 1.1875 -1.15625 C 1.125 -1.21875 1.039062 -1.25 0.9375 -1.25 Z M 0.9375 -1.25 "/></g></g></g><g fill="#ffffff" fill-opacity="1"><g transform="translate(6.768276, 3.264279)"><g/></g></g><g fill="#ffffff" fill-opacity="1"><g transform="translate(7.601315, 3.264279)"><g><path d="M 0.75 0.03125 C 0.613281 0.03125 0.484375 0.015625 0.359375 -0.015625 C 0.234375 -0.0546875 0.132812 -0.0976562 0.0625 -0.140625 L 0.21875 -0.46875 C 0.28125 -0.425781 0.359375 -0.390625 0.453125 -0.359375 C 0.554688 -0.335938 0.660156 -0.328125 0.765625 -0.328125 C 0.953125 -0.328125 1.046875 -0.375 1.046875 -0.46875 C 1.046875 -0.507812 1.019531 -0.539062 0.96875 -0.5625 C 0.914062 -0.582031 0.835938 -0.597656 0.734375 -0.609375 C 0.597656 -0.628906 0.488281 -0.648438 0.40625 -0.671875 C 0.320312 -0.703125 0.25 -0.75 0.1875 -0.8125 C 0.125 -0.875 0.09375 -0.96875 0.09375 -1.09375 C 0.09375 -1.195312 0.117188 -1.285156 0.171875 -1.359375 C 0.234375 -1.429688 0.320312 -1.488281 0.4375 -1.53125 C 0.550781 -1.582031 0.679688 -1.609375 0.828125 -1.609375 C 0.941406 -1.609375 1.050781 -1.59375 1.15625 -1.5625 C 1.269531 -1.539062 1.363281 -1.507812 1.4375 -1.46875 L 1.28125 -1.140625 C 1.144531 -1.210938 0.992188 -1.25 0.828125 -1.25 C 0.734375 -1.25 0.660156 -1.234375 0.609375 -1.203125 C 0.554688 -1.179688 0.53125 -1.148438 0.53125 -1.109375 C 0.53125 -1.054688 0.554688 -1.019531 0.609375 -1 C 0.660156 -0.988281 0.742188 -0.972656 0.859375 -0.953125 C 0.992188 -0.929688 1.101562 -0.90625 1.1875 -0.875 C 1.269531 -0.851562 1.335938 -0.8125 1.390625 -0.75 C 1.453125 -0.6875 1.484375 -0.597656 1.484375 -0.484375 C 1.484375 -0.378906 1.453125 -0.289062 1.390625 -0.21875 C 1.335938 -0.144531 1.253906 -0.0820312 1.140625 -0.03125 C 1.023438 0.0078125 0.894531 0.03125 0.75 0.03125 Z M 0.75 0.03125 "/></g></g></g><g fill="#ffffff" fill-opacity="1"><g transform="translate(9.164366, 3.264279)"><g><path d="M 2.234375 -1.609375 C 2.429688 -1.609375 2.585938 -1.546875 2.703125 -1.421875 C 2.816406 -1.304688 2.875 -1.132812 2.875 -0.90625 L 2.875 0 L 2.421875 0 L 2.421875 -0.828125 C 2.421875 -0.953125 2.394531 -1.046875 2.34375 -1.109375 C 2.289062 -1.171875 2.21875 -1.203125 2.125 -1.203125 C 2.019531 -1.203125 1.9375 -1.164062 1.875 -1.09375 C 1.8125 -1.03125 1.78125 -0.929688 1.78125 -0.796875 L 1.78125 0 L 1.3125 0 L 1.3125 -0.828125 C 1.3125 -1.078125 1.210938 -1.203125 1.015625 -1.203125 C 0.910156 -1.203125 0.828125 -1.164062 0.765625 -1.09375 C 0.703125 -1.03125 0.671875 -0.929688 0.671875 -0.796875 L 0.671875 0 L 0.21875 0 L 0.21875 -1.578125 L 0.65625 -1.578125 L 0.65625 -1.390625 C 0.707031 -1.460938 0.773438 -1.515625 0.859375 -1.546875 C 0.953125 -1.585938 1.046875 -1.609375 1.140625 -1.609375 C 1.253906 -1.609375 1.351562 -1.582031 1.4375 -1.53125 C 1.53125 -1.488281 1.609375 -1.425781 1.671875 -1.34375 C 1.734375 -1.425781 1.8125 -1.488281 1.90625 -1.53125 C 2.007812 -1.582031 2.117188 -1.609375 2.234375 -1.609375 Z M 2.234375 -1.609375 "/></g></g></g><g fill="#ffffff" fill-opacity="1"><g transform="translate(12.252201, 3.264279)"><g><path d="M 0.84375 -1.609375 C 1.09375 -1.609375 1.28125 -1.546875 1.40625 -1.421875 C 1.539062 -1.304688 1.609375 -1.132812 1.609375 -0.90625 L 1.609375 0 L 1.1875 0 L 1.1875 -0.203125 C 1.09375 -0.046875 0.929688 0.03125 0.703125 0.03125 C 0.578125 0.03125 0.46875 0.0078125 0.375 -0.03125 C 0.289062 -0.0703125 0.222656 -0.128906 0.171875 -0.203125 C 0.128906 -0.273438 0.109375 -0.359375 0.109375 -0.453125 C 0.109375 -0.597656 0.160156 -0.710938 0.265625 -0.796875 C 0.378906 -0.878906 0.550781 -0.921875 0.78125 -0.921875 L 1.15625 -0.921875 C 1.15625 -1.023438 1.125 -1.101562 1.0625 -1.15625 C 1 -1.207031 0.90625 -1.234375 0.78125 -1.234375 C 0.695312 -1.234375 0.613281 -1.21875 0.53125 -1.1875 C 0.457031 -1.164062 0.390625 -1.132812 0.328125 -1.09375 L 0.171875 -1.40625 C 0.253906 -1.46875 0.351562 -1.515625 0.46875 -1.546875 C 0.59375 -1.585938 0.71875 -1.609375 0.84375 -1.609375 Z M 0.8125 -0.28125 C 0.894531 -0.28125 0.960938 -0.296875 1.015625 -0.328125 C 1.078125 -0.367188 1.125 -0.425781 1.15625 -0.5 L 1.15625 -0.65625 L 0.84375 -0.65625 C 0.65625 -0.65625 0.5625 -0.59375 0.5625 -0.46875 C 0.5625 -0.414062 0.582031 -0.367188 0.625 -0.328125 C 0.664062 -0.296875 0.726562 -0.28125 0.8125 -0.28125 Z M 0.8125 -0.28125 "/></g></g></g><g fill="#ffffff" fill-opacity="1"><g transform="translate(14.068403, 3.264279)"><g><path d="M 0.65625 -1.375 C 0.707031 -1.445312 0.78125 -1.503906 0.875 -1.546875 C 0.96875 -1.585938 1.070312 -1.609375 1.1875 -1.609375 L 1.1875 -1.1875 C 1.132812 -1.1875 1.101562 -1.1875 1.09375 -1.1875 C 0.957031 -1.1875 0.851562 -1.148438 0.78125 -1.078125 C 0.707031 -1.003906 0.671875 -0.894531 0.671875 -0.75 L 0.671875 0 L 0.21875 0 L 0.21875 -1.578125 L 0.65625 -1.578125 Z M 0.65625 -1.375 "/></g></g></g><g fill="#ffffff" fill-opacity="1"><g transform="translate(15.337093, 3.264279)"><g><path d="M 1.234375 -0.078125 C 1.179688 -0.046875 1.125 -0.0195312 1.0625 0 C 1 0.0195312 0.929688 0.03125 0.859375 0.03125 C 0.671875 0.03125 0.523438 -0.015625 0.421875 -0.109375 C 0.316406 -0.210938 0.265625 -0.359375 0.265625 -0.546875 L 0.265625 -1.1875 L 0.03125 -1.1875 L 0.03125 -1.546875 L 0.265625 -1.546875 L 0.265625 -1.9375 L 0.71875 -1.9375 L 0.71875 -1.546875 L 1.125 -1.546875 L 1.125 -1.1875 L 0.71875 -1.1875 L 0.71875 -0.546875 C 0.71875 -0.484375 0.734375 -0.429688 0.765625 -0.390625 C 0.804688 -0.359375 0.859375 -0.34375 0.921875 -0.34375 C 0.992188 -0.34375 1.054688 -0.363281 1.109375 -0.40625 Z M 1.234375 -0.078125 "/></g></g></g><g fill="#ffffff" fill-opacity="1"><g transform="translate(16.617559, 3.264279)"><g><path d="M 1.765625 -0.78125 C 1.765625 -0.78125 1.757812 -0.738281 1.75 -0.65625 L 0.5625 -0.65625 C 0.582031 -0.5625 0.628906 -0.484375 0.703125 -0.421875 C 0.785156 -0.367188 0.882812 -0.34375 1 -0.34375 C 1.082031 -0.34375 1.15625 -0.351562 1.21875 -0.375 C 1.289062 -0.40625 1.351562 -0.445312 1.40625 -0.5 L 1.640625 -0.234375 C 1.492188 -0.0546875 1.28125 0.03125 1 0.03125 C 0.820312 0.03125 0.660156 -0.00390625 0.515625 -0.078125 C 0.378906 -0.148438 0.273438 -0.25 0.203125 -0.375 C 0.128906 -0.5 0.09375 -0.640625 0.09375 -0.796875 C 0.09375 -0.941406 0.128906 -1.078125 0.203125 -1.203125 C 0.273438 -1.328125 0.375 -1.425781 0.5 -1.5 C 0.632812 -1.570312 0.78125 -1.609375 0.9375 -1.609375 C 1.09375 -1.609375 1.234375 -1.570312 1.359375 -1.5 C 1.484375 -1.4375 1.582031 -1.34375 1.65625 -1.21875 C 1.726562 -1.09375 1.765625 -0.945312 1.765625 -0.78125 Z M 0.9375 -1.25 C 0.832031 -1.25 0.742188 -1.21875 0.671875 -1.15625 C 0.609375 -1.101562 0.566406 -1.023438 0.546875 -0.921875 L 1.328125 -0.921875 C 1.304688 -1.023438 1.257812 -1.101562 1.1875 -1.15625 C 1.125 -1.21875 1.039062 -1.25 0.9375 -1.25 Z M 0.9375 -1.25 "/></g></g></g><g fill="#ffffff" fill-opacity="1"><g transform="translate(18.474971, 3.264279)"><g><path d="M 0.65625 -1.375 C 0.707031 -1.445312 0.78125 -1.503906 0.875 -1.546875 C 0.96875 -1.585938 1.070312 -1.609375 1.1875 -1.609375 L 1.1875 -1.1875 C 1.132812 -1.1875 1.101562 -1.1875 1.09375 -1.1875 C 0.957031 -1.1875 0.851562 -1.148438 0.78125 -1.078125 C 0.707031 -1.003906 0.671875 -0.894531 0.671875 -0.75 L 0.671875 0 L 0.21875 0 L 0.21875 -1.578125 L 0.65625 -1.578125 Z M 0.65625 -1.375 "/></g></g></g><g fill="#ffffff" fill-opacity="1"><g transform="translate(19.743661, 3.264279)"><g><path d="M 0.390625 -0.546875 C 0.472656 -0.546875 0.539062 -0.519531 0.59375 -0.46875 C 0.644531 -0.414062 0.671875 -0.347656 0.671875 -0.265625 C 0.671875 -0.222656 0.664062 -0.179688 0.65625 -0.140625 C 0.644531 -0.109375 0.625 -0.0507812 0.59375 0.03125 L 0.421875 0.453125 L 0.125 0.453125 L 0.265625 -0.015625 C 0.210938 -0.0351562 0.171875 -0.0664062 0.140625 -0.109375 C 0.117188 -0.148438 0.109375 -0.203125 0.109375 -0.265625 C 0.109375 -0.347656 0.132812 -0.414062 0.1875 -0.46875 C 0.238281 -0.519531 0.304688 -0.546875 0.390625 -0.546875 Z M 0.390625 -0.546875 "/></g></g></g><g fill="#ffffff" fill-opacity="1"><g transform="translate(20.514885, 3.264279)"><g/></g></g><g fill="#ffffff" fill-opacity="1"><g transform="translate(21.347924, 3.264279)"><g><path d="M 0.75 0.03125 C 0.613281 0.03125 0.484375 0.015625 0.359375 -0.015625 C 0.234375 -0.0546875 0.132812 -0.0976562 0.0625 -0.140625 L 0.21875 -0.46875 C 0.28125 -0.425781 0.359375 -0.390625 0.453125 -0.359375 C 0.554688 -0.335938 0.660156 -0.328125 0.765625 -0.328125 C 0.953125 -0.328125 1.046875 -0.375 1.046875 -0.46875 C 1.046875 -0.507812 1.019531 -0.539062 0.96875 -0.5625 C 0.914062 -0.582031 0.835938 -0.597656 0.734375 -0.609375 C 0.597656 -0.628906 0.488281 -0.648438 0.40625 -0.671875 C 0.320312 -0.703125 0.25 -0.75 0.1875 -0.8125 C 0.125 -0.875 0.09375 -0.96875 0.09375 -1.09375 C 0.09375 -1.195312 0.117188 -1.285156 0.171875 -1.359375 C 0.234375 -1.429688 0.320312 -1.488281 0.4375 -1.53125 C 0.550781 -1.582031 0.679688 -1.609375 0.828125 -1.609375 C 0.941406 -1.609375 1.050781 -1.59375 1.15625 -1.5625 C 1.269531 -1.539062 1.363281 -1.507812 1.4375 -1.46875 L 1.28125 -1.140625 C 1.144531 -1.210938 0.992188 -1.25 0.828125 -1.25 C 0.734375 -1.25 0.660156 -1.234375 0.609375 -1.203125 C 0.554688 -1.179688 0.53125 -1.148438 0.53125 -1.109375 C 0.53125 -1.054688 0.554688 -1.019531 0.609375 -1 C 0.660156 -0.988281 0.742188 -0.972656 0.859375 -0.953125 C 0.992188 -0.929688 1.101562 -0.90625 1.1875 -0.875 C 1.269531 -0.851562 1.335938 -0.8125 1.390625 -0.75 C 1.453125 -0.6875 1.484375 -0.597656 1.484375 -0.484375 C 1.484375 -0.378906 1.453125 -0.289062 1.390625 -0.21875 C 1.335938 -0.144531 1.253906 -0.0820312 1.140625 -0.03125 C 1.023438 0.0078125 0.894531 0.03125 0.75 0.03125 Z M 0.75 0.03125 "/></g></g></g><g clip-path="url(#54a2492fe1)"><g fill="#ffffff" fill-opacity="1"><g transform="translate(22.910975, 3.264279)"><g><path d="M 0.21875 -1.578125 L 0.671875 -1.578125 L 0.671875 0 L 0.21875 0 Z M 0.453125 -1.796875 C 0.367188 -1.796875 0.296875 -1.820312 0.234375 -1.875 C 0.179688 -1.925781 0.15625 -1.988281 0.15625 -2.0625 C 0.15625 -2.132812 0.179688 -2.191406 0.234375 -2.234375 C 0.296875 -2.285156 0.367188 -2.3125 0.453125 -2.3125 C 0.535156 -2.3125 0.601562 -2.285156 0.65625 -2.234375 C 0.707031 -2.191406 0.734375 -2.132812 0.734375 -2.0625 C 0.734375 -1.988281 0.707031 -1.925781 0.65625 -1.875 C 0.601562 -1.820312 0.535156 -1.796875 0.453125 -1.796875 Z M 0.453125 -1.796875 "/></g></g></g></g><g fill="#ffffff" fill-opacity="1"><g transform="translate(23.796998, 3.264279)"><g><path d="M 2.234375 -1.609375 C 2.429688 -1.609375 2.585938 -1.546875 2.703125 -1.421875 C 2.816406 -1.304688 2.875 -1.132812 2.875 -0.90625 L 2.875 0 L 2.421875 0 L 2.421875 -0.828125 C 2.421875 -0.953125 2.394531 -1.046875 2.34375 -1.109375 C 2.289062 -1.171875 2.21875 -1.203125 2.125 -1.203125 C 2.019531 -1.203125 1.9375 -1.164062 1.875 -1.09375 C 1.8125 -1.03125 1.78125 -0.929688 1.78125 -0.796875 L 1.78125 0 L 1.3125 0 L 1.3125 -0.828125 C 1.3125 -1.078125 1.210938 -1.203125 1.015625 -1.203125 C 0.910156 -1.203125 0.828125 -1.164062 0.765625 -1.09375 C 0.703125 -1.03125 0.671875 -0.929688 0.671875 -0.796875 L 0.671875 0 L 0.21875 0 L 0.21875 -1.578125 L 0.65625 -1.578125 L 0.65625 -1.390625 C 0.707031 -1.460938 0.773438 -1.515625 0.859375 -1.546875 C 0.953125 -1.585938 1.046875 -1.609375 1.140625 -1.609375 C 1.253906 -1.609375 1.351562 -1.582031 1.4375 -1.53125 C 1.53125 -1.488281 1.609375 -1.425781 1.671875 -1.34375 C 1.734375 -1.425781 1.8125 -1.488281 1.90625 -1.53125 C 2.007812 -1.582031 2.117188 -1.609375 2.234375 -1.609375 Z M 2.234375 -1.609375 "/></g></g></g><g fill="#ffffff" fill-opacity="1"><g transform="translate(26.884834, 3.264279)"><g><path d="M 1.140625 -1.609375 C 1.285156 -1.609375 1.421875 -1.570312 1.546875 -1.5 C 1.671875 -1.4375 1.765625 -1.34375 1.828125 -1.21875 C 1.898438 -1.09375 1.9375 -0.953125 1.9375 -0.796875 C 1.9375 -0.628906 1.898438 -0.484375 1.828125 -0.359375 C 1.765625 -0.234375 1.671875 -0.132812 1.546875 -0.0625 C 1.421875 0 1.285156 0.03125 1.140625 0.03125 C 0.941406 0.03125 0.785156 -0.0351562 0.671875 -0.171875 L 0.671875 0.5625 L 0.21875 0.5625 L 0.21875 -1.578125 L 0.65625 -1.578125 L 0.65625 -1.390625 C 0.757812 -1.535156 0.921875 -1.609375 1.140625 -1.609375 Z M 1.0625 -0.359375 C 1.1875 -0.359375 1.285156 -0.394531 1.359375 -0.46875 C 1.429688 -0.550781 1.46875 -0.660156 1.46875 -0.796875 C 1.46875 -0.921875 1.429688 -1.023438 1.359375 -1.109375 C 1.285156 -1.191406 1.1875 -1.234375 1.0625 -1.234375 C 0.945312 -1.234375 0.847656 -1.191406 0.765625 -1.109375 C 0.691406 -1.023438 0.65625 -0.921875 0.65625 -0.796875 C 0.65625 -0.660156 0.691406 -0.550781 0.765625 -0.46875 C 0.847656 -0.394531 0.945312 -0.359375 1.0625 -0.359375 Z M 1.0625 -0.359375 "/></g></g></g><g fill="#ffffff" fill-opacity="1"><g transform="translate(28.915918, 3.264279)"><g><path d="M 0.21875 -2.171875 L 0.671875 -2.171875 L 0.671875 0 L 0.21875 0 Z M 0.21875 -2.171875 "/></g></g></g><g fill="#ffffff" fill-opacity="1"><g transform="translate(29.801943, 3.264279)"><g><path d="M 1.765625 -0.78125 C 1.765625 -0.78125 1.757812 -0.738281 1.75 -0.65625 L 0.5625 -0.65625 C 0.582031 -0.5625 0.628906 -0.484375 0.703125 -0.421875 C 0.785156 -0.367188 0.882812 -0.34375 1 -0.34375 C 1.082031 -0.34375 1.15625 -0.351562 1.21875 -0.375 C 1.289062 -0.40625 1.351562 -0.445312 1.40625 -0.5 L 1.640625 -0.234375 C 1.492188 -0.0546875 1.28125 0.03125 1 0.03125 C 0.820312 0.03125 0.660156 -0.00390625 0.515625 -0.078125 C 0.378906 -0.148438 0.273438 -0.25 0.203125 -0.375 C 0.128906 -0.5 0.09375 -0.640625 0.09375 -0.796875 C 0.09375 -0.941406 0.128906 -1.078125 0.203125 -1.203125 C 0.273438 -1.328125 0.375 -1.425781 0.5 -1.5 C 0.632812 -1.570312 0.78125 -1.609375 0.9375 -1.609375 C 1.09375 -1.609375 1.234375 -1.570312 1.359375 -1.5 C 1.484375 -1.4375 1.582031 -1.34375 1.65625 -1.21875 C 1.726562 -1.09375 1.765625 -0.945312 1.765625 -0.78125 Z M 0.9375 -1.25 C 0.832031 -1.25 0.742188 -1.21875 0.671875 -1.15625 C 0.609375 -1.101562 0.566406 -1.023438 0.546875 -0.921875 L 1.328125 -0.921875 C 1.304688 -1.023438 1.257812 -1.101562 1.1875 -1.15625 C 1.125 -1.21875 1.039062 -1.25 0.9375 -1.25 Z M 0.9375 -1.25 "/></g></g></g><g fill="#ffffff" fill-opacity="1"><g transform="translate(31.659353, 3.264279)"><g><path d="M 0.65625 -1.375 C 0.707031 -1.445312 0.78125 -1.503906 0.875 -1.546875 C 0.96875 -1.585938 1.070312 -1.609375 1.1875 -1.609375 L 1.1875 -1.1875 C 1.132812 -1.1875 1.101562 -1.1875 1.09375 -1.1875 C 0.957031 -1.1875 0.851562 -1.148438 0.78125 -1.078125 C 0.707031 -1.003906 0.671875 -0.894531 0.671875 -0.75 L 0.671875 0 L 0.21875 0 L 0.21875 -1.578125 L 0.65625 -1.578125 Z M 0.65625 -1.375 "/></g></g></g><g fill="#ffffff" fill-opacity="1"><g transform="translate(32.928041, 3.264279)"><g/></g></g><g fill="#ffffff" fill-opacity="1"><g transform="translate(33.761084, 3.264279)"><g><path d="M 2.75 -1.578125 L 2.171875 0 L 1.734375 0 L 1.375 -0.984375 L 1.015625 0 L 0.578125 0 L 0 -1.578125 L 0.4375 -1.578125 L 0.8125 -0.515625 L 1.203125 -1.578125 L 1.578125 -1.578125 L 1.953125 -0.515625 L 2.34375 -1.578125 Z M 2.75 -1.578125 "/></g></g></g><g fill="#ffffff" fill-opacity="1"><g transform="translate(36.519235, 3.264279)"><g><path d="M 0.84375 -1.609375 C 1.09375 -1.609375 1.28125 -1.546875 1.40625 -1.421875 C 1.539062 -1.304688 1.609375 -1.132812 1.609375 -0.90625 L 1.609375 0 L 1.1875 0 L 1.1875 -0.203125 C 1.09375 -0.046875 0.929688 0.03125 0.703125 0.03125 C 0.578125 0.03125 0.46875 0.0078125 0.375 -0.03125 C 0.289062 -0.0703125 0.222656 -0.128906 0.171875 -0.203125 C 0.128906 -0.273438 0.109375 -0.359375 0.109375 -0.453125 C 0.109375 -0.597656 0.160156 -0.710938 0.265625 -0.796875 C 0.378906 -0.878906 0.550781 -0.921875 0.78125 -0.921875 L 1.15625 -0.921875 C 1.15625 -1.023438 1.125 -1.101562 1.0625 -1.15625 C 1 -1.207031 0.90625 -1.234375 0.78125 -1.234375 C 0.695312 -1.234375 0.613281 -1.21875 0.53125 -1.1875 C 0.457031 -1.164062 0.390625 -1.132812 0.328125 -1.09375 L 0.171875 -1.40625 C 0.253906 -1.46875 0.351562 -1.515625 0.46875 -1.546875 C 0.59375 -1.585938 0.71875 -1.609375 0.84375 -1.609375 Z M 0.8125 -0.28125 C 0.894531 -0.28125 0.960938 -0.296875 1.015625 -0.328125 C 1.078125 -0.367188 1.125 -0.425781 1.15625 -0.5 L 1.15625 -0.65625 L 0.84375 -0.65625 C 0.65625 -0.65625 0.5625 -0.59375 0.5625 -0.46875 C 0.5625 -0.414062 0.582031 -0.367188 0.625 -0.328125 C 0.664062 -0.296875 0.726562 -0.28125 0.8125 -0.28125 Z M 0.8125 -0.28125 "/></g></g></g><g fill="#ffffff" fill-opacity="1"><g transform="translate(38.335437, 3.264279)"><g><path d="M 1.78125 -1.578125 L 1.0625 0.09375 C 0.988281 0.28125 0.898438 0.410156 0.796875 0.484375 C 0.691406 0.554688 0.5625 0.59375 0.40625 0.59375 C 0.320312 0.59375 0.238281 0.578125 0.15625 0.546875 C 0.0820312 0.523438 0.0195312 0.492188 -0.03125 0.453125 L 0.140625 0.125 C 0.171875 0.15625 0.207031 0.175781 0.25 0.1875 C 0.300781 0.207031 0.347656 0.21875 0.390625 0.21875 C 0.453125 0.21875 0.503906 0.203125 0.546875 0.171875 C 0.585938 0.140625 0.625 0.09375 0.65625 0.03125 L 0.65625 0.015625 L -0.03125 -1.578125 L 0.453125 -1.578125 L 0.890625 -0.515625 L 1.34375 -1.578125 Z M 1.78125 -1.578125 "/></g></g></g><g fill="#ffffff" fill-opacity="1"><g transform="translate(40.095711, 3.264279)"><g/></g></g><g fill="#ffffff" fill-opacity="1"><g transform="translate(40.928747, 3.264279)"><g><path d="M 1.234375 -0.078125 C 1.179688 -0.046875 1.125 -0.0195312 1.0625 0 C 1 0.0195312 0.929688 0.03125 0.859375 0.03125 C 0.671875 0.03125 0.523438 -0.015625 0.421875 -0.109375 C 0.316406 -0.210938 0.265625 -0.359375 0.265625 -0.546875 L 0.265625 -1.1875 L 0.03125 -1.1875 L 0.03125 -1.546875 L 0.265625 -1.546875 L 0.265625 -1.9375 L 0.71875 -1.9375 L 0.71875 -1.546875 L 1.125 -1.546875 L 1.125 -1.1875 L 0.71875 -1.1875 L 0.71875 -0.546875 C 0.71875 -0.484375 0.734375 -0.429688 0.765625 -0.390625 C 0.804688 -0.359375 0.859375 -0.34375 0.921875 -0.34375 C 0.992188 -0.34375 1.054688 -0.363281 1.109375 -0.40625 Z M 1.234375 -0.078125 "/></g></g></g><g fill="#ffffff" fill-opacity="1"><g transform="translate(42.209215, 3.264279)"><g><path d="M 0.96875 0.03125 C 0.800781 0.03125 0.648438 -0.00390625 0.515625 -0.078125 C 0.378906 -0.148438 0.273438 -0.25 0.203125 -0.375 C 0.128906 -0.5 0.09375 -0.640625 0.09375 -0.796875 C 0.09375 -0.953125 0.128906 -1.085938 0.203125 -1.203125 C 0.273438 -1.328125 0.378906 -1.425781 0.515625 -1.5 C 0.648438 -1.570312 0.800781 -1.609375 0.96875 -1.609375 C 1.132812 -1.609375 1.28125 -1.570312 1.40625 -1.5 C 1.539062 -1.425781 1.644531 -1.328125 1.71875 -1.203125 C 1.789062 -1.085938 1.828125 -0.953125 1.828125 -0.796875 C 1.828125 -0.640625 1.789062 -0.5 1.71875 -0.375 C 1.644531 -0.25 1.539062 -0.148438 1.40625 -0.078125 C 1.28125 -0.00390625 1.132812 0.03125 0.96875 0.03125 Z M 0.96875 -0.359375 C 1.082031 -0.359375 1.175781 -0.394531 1.25 -0.46875 C 1.320312 -0.550781 1.359375 -0.660156 1.359375 -0.796875 C 1.359375 -0.921875 1.320312 -1.023438 1.25 -1.109375 C 1.175781 -1.191406 1.082031 -1.234375 0.96875 -1.234375 C 0.84375 -1.234375 0.742188 -1.191406 0.671875 -1.109375 C 0.597656 -1.023438 0.5625 -0.921875 0.5625 -0.796875 C 0.5625 -0.660156 0.597656 -0.550781 0.671875 -0.46875 C 0.742188 -0.394531 0.84375 -0.359375 0.96875 -0.359375 Z M 0.96875 -0.359375 "/></g></g></g><g fill="#ffffff" fill-opacity="1"><g transform="translate(44.137273, 3.264279)"><g/></g></g><g fill="#ffffff" fill-opacity="1"><g transform="translate(44.970312, 3.264279)"><g><path d="M 0.75 0.03125 C 0.613281 0.03125 0.484375 0.015625 0.359375 -0.015625 C 0.234375 -0.0546875 0.132812 -0.0976562 0.0625 -0.140625 L 0.21875 -0.46875 C 0.28125 -0.425781 0.359375 -0.390625 0.453125 -0.359375 C 0.554688 -0.335938 0.660156 -0.328125 0.765625 -0.328125 C 0.953125 -0.328125 1.046875 -0.375 1.046875 -0.46875 C 1.046875 -0.507812 1.019531 -0.539062 0.96875 -0.5625 C 0.914062 -0.582031 0.835938 -0.597656 0.734375 -0.609375 C 0.597656 -0.628906 0.488281 -0.648438 0.40625 -0.671875 C 0.320312 -0.703125 0.25 -0.75 0.1875 -0.8125 C 0.125 -0.875 0.09375 -0.96875 0.09375 -1.09375 C 0.09375 -1.195312 0.117188 -1.285156 0.171875 -1.359375 C 0.234375 -1.429688 0.320312 -1.488281 0.4375 -1.53125 C 0.550781 -1.582031 0.679688 -1.609375 0.828125 -1.609375 C 0.941406 -1.609375 1.050781 -1.59375 1.15625 -1.5625 C 1.269531 -1.539062 1.363281 -1.507812 1.4375 -1.46875 L 1.28125 -1.140625 C 1.144531 -1.210938 0.992188 -1.25 0.828125 -1.25 C 0.734375 -1.25 0.660156 -1.234375 0.609375 -1.203125 C 0.554688 -1.179688 0.53125 -1.148438 0.53125 -1.109375 C 0.53125 -1.054688 0.554688 -1.019531 0.609375 -1 C 0.660156 -0.988281 0.742188 -0.972656 0.859375 -0.953125 C 0.992188 -0.929688 1.101562 -0.90625 1.1875 -0.875 C 1.269531 -0.851562 1.335938 -0.8125 1.390625 -0.75 C 1.453125 -0.6875 1.484375 -0.597656 1.484375 -0.484375 C 1.484375 -0.378906 1.453125 -0.289062 1.390625 -0.21875 C 1.335938 -0.144531 1.253906 -0.0820312 1.140625 -0.03125 C 1.023438 0.0078125 0.894531 0.03125 0.75 0.03125 Z M 0.75 0.03125 "/></g></g></g><g fill="#ffffff" fill-opacity="1"><g transform="translate(46.533365, 3.264279)"><g><path d="M 1.171875 -1.609375 C 1.367188 -1.609375 1.523438 -1.546875 1.640625 -1.421875 C 1.765625 -1.304688 1.828125 -1.132812 1.828125 -0.90625 L 1.828125 0 L 1.375 0 L 1.375 -0.828125 C 1.375 -0.953125 1.34375 -1.046875 1.28125 -1.109375 C 1.226562 -1.171875 1.148438 -1.203125 1.046875 -1.203125 C 0.929688 -1.203125 0.835938 -1.164062 0.765625 -1.09375 C 0.703125 -1.03125 0.671875 -0.925781 0.671875 -0.78125 L 0.671875 0 L 0.21875 0 L 0.21875 -2.171875 L 0.671875 -2.171875 L 0.671875 -1.421875 C 0.734375 -1.472656 0.804688 -1.515625 0.890625 -1.546875 C 0.972656 -1.585938 1.066406 -1.609375 1.171875 -1.609375 Z M 1.171875 -1.609375 "/></g></g></g><g fill="#ffffff" fill-opacity="1"><g transform="translate(48.567391, 3.264279)"><g><path d="M 0.84375 -1.609375 C 1.09375 -1.609375 1.28125 -1.546875 1.40625 -1.421875 C 1.539062 -1.304688 1.609375 -1.132812 1.609375 -0.90625 L 1.609375 0 L 1.1875 0 L 1.1875 -0.203125 C 1.09375 -0.046875 0.929688 0.03125 0.703125 0.03125 C 0.578125 0.03125 0.46875 0.0078125 0.375 -0.03125 C 0.289062 -0.0703125 0.222656 -0.128906 0.171875 -0.203125 C 0.128906 -0.273438 0.109375 -0.359375 0.109375 -0.453125 C 0.109375 -0.597656 0.160156 -0.710938 0.265625 -0.796875 C 0.378906 -0.878906 0.550781 -0.921875 0.78125 -0.921875 L 1.15625 -0.921875 C 1.15625 -1.023438 1.125 -1.101562 1.0625 -1.15625 C 1 -1.207031 0.90625 -1.234375 0.78125 -1.234375 C 0.695312 -1.234375 0.613281 -1.21875 0.53125 -1.1875 C 0.457031 -1.164062 0.390625 -1.132812 0.328125 -1.09375 L 0.171875 -1.40625 C 0.253906 -1.46875 0.351562 -1.515625 0.46875 -1.546875 C 0.59375 -1.585938 0.71875 -1.609375 0.84375 -1.609375 Z M 0.8125 -0.28125 C 0.894531 -0.28125 0.960938 -0.296875 1.015625 -0.328125 C 1.078125 -0.367188 1.125 -0.425781 1.15625 -0.5 L 1.15625 -0.65625 L 0.84375 -0.65625 C 0.65625 -0.65625 0.5625 -0.59375 0.5625 -0.46875 C 0.5625 -0.414062 0.582031 -0.367188 0.625 -0.328125 C 0.664062 -0.296875 0.726562 -0.28125 0.8125 -0.28125 Z M 0.8125 -0.28125 "/></g></g></g><g fill="#ffffff" fill-opacity="1"><g transform="translate(50.383592, 3.264279)"><g><path d="M 0.65625 -1.375 C 0.707031 -1.445312 0.78125 -1.503906 0.875 -1.546875 C 0.96875 -1.585938 1.070312 -1.609375 1.1875 -1.609375 L 1.1875 -1.1875 C 1.132812 -1.1875 1.101562 -1.1875 1.09375 -1.1875 C 0.957031 -1.1875 0.851562 -1.148438 0.78125 -1.078125 C 0.707031 -1.003906 0.671875 -0.894531 0.671875 -0.75 L 0.671875 0 L 0.21875 0 L 0.21875 -1.578125 L 0.65625 -1.578125 Z M 0.65625 -1.375 "/></g></g></g><g fill="#ffffff" fill-opacity="1"><g transform="translate(51.652281, 3.264279)"><g><path d="M 1.765625 -0.78125 C 1.765625 -0.78125 1.757812 -0.738281 1.75 -0.65625 L 0.5625 -0.65625 C 0.582031 -0.5625 0.628906 -0.484375 0.703125 -0.421875 C 0.785156 -0.367188 0.882812 -0.34375 1 -0.34375 C 1.082031 -0.34375 1.15625 -0.351562 1.21875 -0.375 C 1.289062 -0.40625 1.351562 -0.445312 1.40625 -0.5 L 1.640625 -0.234375 C 1.492188 -0.0546875 1.28125 0.03125 1 0.03125 C 0.820312 0.03125 0.660156 -0.00390625 0.515625 -0.078125 C 0.378906 -0.148438 0.273438 -0.25 0.203125 -0.375 C 0.128906 -0.5 0.09375 -0.640625 0.09375 -0.796875 C 0.09375 -0.941406 0.128906 -1.078125 0.203125 -1.203125 C 0.273438 -1.328125 0.375 -1.425781 0.5 -1.5 C 0.632812 -1.570312 0.78125 -1.609375 0.9375 -1.609375 C 1.09375 -1.609375 1.234375 -1.570312 1.359375 -1.5 C 1.484375 -1.4375 1.582031 -1.34375 1.65625 -1.21875 C 1.726562 -1.09375 1.765625 -0.945312 1.765625 -0.78125 Z M 0.9375 -1.25 C 0.832031 -1.25 0.742188 -1.21875 0.671875 -1.15625 C 0.609375 -1.101562 0.566406 -1.023438 0.546875 -0.921875 L 1.328125 -0.921875 C 1.304688 -1.023438 1.257812 -1.101562 1.1875 -1.15625 C 1.125 -1.21875 1.039062 -1.25 0.9375 -1.25 Z M 0.9375 -1.25 "/></g></g></g><g fill="#ffffff" fill-opacity="1"><g transform="translate(53.509694, 3.264279)"><g/></g></g><g fill="#ffffff" fill-opacity="1"><g transform="translate(54.342733, 3.264279)"><g><path d="M 0.84375 -1.609375 C 1.09375 -1.609375 1.28125 -1.546875 1.40625 -1.421875 C 1.539062 -1.304688 1.609375 -1.132812 1.609375 -0.90625 L 1.609375 0 L 1.1875 0 L 1.1875 -0.203125 C 1.09375 -0.046875 0.929688 0.03125 0.703125 0.03125 C 0.578125 0.03125 0.46875 0.0078125 0.375 -0.03125 C 0.289062 -0.0703125 0.222656 -0.128906 0.171875 -0.203125 C 0.128906 -0.273438 0.109375 -0.359375 0.109375 -0.453125 C 0.109375 -0.597656 0.160156 -0.710938 0.265625 -0.796875 C 0.378906 -0.878906 0.550781 -0.921875 0.78125 -0.921875 L 1.15625 -0.921875 C 1.15625 -1.023438 1.125 -1.101562 1.0625 -1.15625 C 1 -1.207031 0.90625 -1.234375 0.78125 -1.234375 C 0.695312 -1.234375 0.613281 -1.21875 0.53125 -1.1875 C 0.457031 -1.164062 0.390625 -1.132812 0.328125 -1.09375 L 0.171875 -1.40625 C 0.253906 -1.46875 0.351562 -1.515625 0.46875 -1.546875 C 0.59375 -1.585938 0.71875 -1.609375 0.84375 -1.609375 Z M 0.8125 -0.28125 C 0.894531 -0.28125 0.960938 -0.296875 1.015625 -0.328125 C 1.078125 -0.367188 1.125 -0.425781 1.15625 -0.5 L 1.15625 -0.65625 L 0.84375 -0.65625 C 0.65625 -0.65625 0.5625 -0.59375 0.5625 -0.46875 C 0.5625 -0.414062 0.582031 -0.367188 0.625 -0.328125 C 0.664062 -0.296875 0.726562 -0.28125 0.8125 -0.28125 Z M 0.8125 -0.28125 "/></g></g></g><g fill="#ffffff" fill-opacity="1"><g transform="translate(56.158934, 3.264279)"><g><path d="M 1.171875 -1.609375 C 1.367188 -1.609375 1.523438 -1.546875 1.640625 -1.421875 C 1.765625 -1.304688 1.828125 -1.132812 1.828125 -0.90625 L 1.828125 0 L 1.375 0 L 1.375 -0.828125 C 1.375 -0.953125 1.34375 -1.046875 1.28125 -1.109375 C 1.226562 -1.171875 1.148438 -1.203125 1.046875 -1.203125 C 0.929688 -1.203125 0.835938 -1.164062 0.765625 -1.09375 C 0.703125 -1.03125 0.671875 -0.925781 0.671875 -0.78125 L 0.671875 0 L 0.21875 0 L 0.21875 -1.578125 L 0.65625 -1.578125 L 0.65625 -1.390625 C 0.707031 -1.460938 0.78125 -1.515625 0.875 -1.546875 C 0.96875 -1.585938 1.066406 -1.609375 1.171875 -1.609375 Z M 1.171875 -1.609375 "/></g></g></g><g fill="#ffffff" fill-opacity="1"><g transform="translate(58.19296, 3.264279)"><g><path d="M 1.828125 -2.171875 L 1.828125 0 L 1.390625 0 L 1.390625 -0.1875 C 1.273438 -0.0390625 1.109375 0.03125 0.890625 0.03125 C 0.742188 0.03125 0.609375 0 0.484375 -0.0625 C 0.367188 -0.132812 0.273438 -0.234375 0.203125 -0.359375 C 0.128906 -0.484375 0.09375 -0.628906 0.09375 -0.796875 C 0.09375 -0.953125 0.128906 -1.09375 0.203125 -1.21875 C 0.273438 -1.34375 0.367188 -1.4375 0.484375 -1.5 C 0.609375 -1.570312 0.742188 -1.609375 0.890625 -1.609375 C 1.085938 -1.609375 1.242188 -1.539062 1.359375 -1.40625 L 1.359375 -2.171875 Z M 0.96875 -0.359375 C 1.082031 -0.359375 1.175781 -0.394531 1.25 -0.46875 C 1.332031 -0.550781 1.375 -0.660156 1.375 -0.796875 C 1.375 -0.921875 1.332031 -1.023438 1.25 -1.109375 C 1.175781 -1.191406 1.082031 -1.234375 0.96875 -1.234375 C 0.851562 -1.234375 0.753906 -1.191406 0.671875 -1.109375 C 0.597656 -1.023438 0.5625 -0.921875 0.5625 -0.796875 C 0.5625 -0.660156 0.597656 -0.550781 0.671875 -0.46875 C 0.753906 -0.394531 0.851562 -0.359375 0.96875 -0.359375 Z M 0.96875 -0.359375 "/></g></g></g><g fill="#ffffff" fill-opacity="1"><g transform="translate(60.229932, 3.264279)"><g/></g></g><g fill="#ffffff" fill-opacity="1"><g transform="translate(61.062975, 3.264279)"><g><path d="M 0.96875 0.03125 C 0.800781 0.03125 0.648438 -0.00390625 0.515625 -0.078125 C 0.378906 -0.148438 0.273438 -0.25 0.203125 -0.375 C 0.128906 -0.5 0.09375 -0.640625 0.09375 -0.796875 C 0.09375 -0.953125 0.128906 -1.085938 0.203125 -1.203125 C 0.273438 -1.328125 0.378906 -1.425781 0.515625 -1.5 C 0.648438 -1.570312 0.800781 -1.609375 0.96875 -1.609375 C 1.132812 -1.609375 1.28125 -1.570312 1.40625 -1.5 C 1.53125 -1.425781 1.625 -1.328125 1.6875 -1.203125 L 1.328125 -1.015625 C 1.242188 -1.160156 1.125 -1.234375 0.96875 -1.234375 C 0.851562 -1.234375 0.753906 -1.191406 0.671875 -1.109375 C 0.597656 -1.035156 0.5625 -0.929688 0.5625 -0.796875 C 0.5625 -0.660156 0.597656 -0.550781 0.671875 -0.46875 C 0.753906 -0.394531 0.851562 -0.359375 0.96875 -0.359375 C 1.125 -0.359375 1.242188 -0.425781 1.328125 -0.5625 L 1.6875 -0.375 C 1.625 -0.25 1.53125 -0.148438 1.40625 -0.078125 C 1.28125 -0.00390625 1.132812 0.03125 0.96875 0.03125 Z M 0.96875 0.03125 "/></g></g></g><g fill="#ffffff" fill-opacity="1"><g transform="translate(62.802637, 3.264279)"><g><path d="M 0.96875 0.03125 C 0.800781 0.03125 0.648438 -0.00390625 0.515625 -0.078125 C 0.378906 -0.148438 0.273438 -0.25 0.203125 -0.375 C 0.128906 -0.5 0.09375 -0.640625 0.09375 -0.796875 C 0.09375 -0.953125 0.128906 -1.085938 0.203125 -1.203125 C 0.273438 -1.328125 0.378906 -1.425781 0.515625 -1.5 C 0.648438 -1.570312 0.800781 -1.609375 0.96875 -1.609375 C 1.132812 -1.609375 1.28125 -1.570312 1.40625 -1.5 C 1.539062 -1.425781 1.644531 -1.328125 1.71875 -1.203125 C 1.789062 -1.085938 1.828125 -0.953125 1.828125 -0.796875 C 1.828125 -0.640625 1.789062 -0.5 1.71875 -0.375 C 1.644531 -0.25 1.539062 -0.148438 1.40625 -0.078125 C 1.28125 -0.00390625 1.132812 0.03125 0.96875 0.03125 Z M 0.96875 -0.359375 C 1.082031 -0.359375 1.175781 -0.394531 1.25 -0.46875 C 1.320312 -0.550781 1.359375 -0.660156 1.359375 -0.796875 C 1.359375 -0.921875 1.320312 -1.023438 1.25 -1.109375 C 1.175781 -1.191406 1.082031 -1.234375 0.96875 -1.234375 C 0.84375 -1.234375 0.742188 -1.191406 0.671875 -1.109375 C 0.597656 -1.023438 0.5625 -0.921875 0.5625 -0.796875 C 0.5625 -0.660156 0.597656 -0.550781 0.671875 -0.46875 C 0.742188 -0.394531 0.84375 -0.359375 0.96875 -0.359375 Z M 0.96875 -0.359375 "/></g></g></g><g fill="#ffffff" fill-opacity="1"><g transform="translate(64.730698, 3.264279)"><g><path d="M 1.171875 -1.609375 C 1.367188 -1.609375 1.523438 -1.546875 1.640625 -1.421875 C 1.765625 -1.304688 1.828125 -1.132812 1.828125 -0.90625 L 1.828125 0 L 1.375 0 L 1.375 -0.828125 C 1.375 -0.953125 1.34375 -1.046875 1.28125 -1.109375 C 1.226562 -1.171875 1.148438 -1.203125 1.046875 -1.203125 C 0.929688 -1.203125 0.835938 -1.164062 0.765625 -1.09375 C 0.703125 -1.03125 0.671875 -0.925781 0.671875 -0.78125 L 0.671875 0 L 0.21875 0 L 0.21875 -1.578125 L 0.65625 -1.578125 L 0.65625 -1.390625 C 0.707031 -1.460938 0.78125 -1.515625 0.875 -1.546875 C 0.96875 -1.585938 1.066406 -1.609375 1.171875 -1.609375 Z M 1.171875 -1.609375 "/></g></g></g><g fill="#ffffff" fill-opacity="1"><g transform="translate(66.76472, 3.264279)"><g><path d="M 1.171875 -1.609375 C 1.367188 -1.609375 1.523438 -1.546875 1.640625 -1.421875 C 1.765625 -1.304688 1.828125 -1.132812 1.828125 -0.90625 L 1.828125 0 L 1.375 0 L 1.375 -0.828125 C 1.375 -0.953125 1.34375 -1.046875 1.28125 -1.109375 C 1.226562 -1.171875 1.148438 -1.203125 1.046875 -1.203125 C 0.929688 -1.203125 0.835938 -1.164062 0.765625 -1.09375 C 0.703125 -1.03125 0.671875 -0.925781 0.671875 -0.78125 L 0.671875 0 L 0.21875 0 L 0.21875 -1.578125 L 0.65625 -1.578125 L 0.65625 -1.390625 C 0.707031 -1.460938 0.78125 -1.515625 0.875 -1.546875 C 0.96875 -1.585938 1.066406 -1.609375 1.171875 -1.609375 Z M 1.171875 -1.609375 "/></g></g></g><g fill="#ffffff" fill-opacity="1"><g transform="translate(68.79875, 3.264279)"><g><path d="M 1.765625 -0.78125 C 1.765625 -0.78125 1.757812 -0.738281 1.75 -0.65625 L 0.5625 -0.65625 C 0.582031 -0.5625 0.628906 -0.484375 0.703125 -0.421875 C 0.785156 -0.367188 0.882812 -0.34375 1 -0.34375 C 1.082031 -0.34375 1.15625 -0.351562 1.21875 -0.375 C 1.289062 -0.40625 1.351562 -0.445312 1.40625 -0.5 L 1.640625 -0.234375 C 1.492188 -0.0546875 1.28125 0.03125 1 0.03125 C 0.820312 0.03125 0.660156 -0.00390625 0.515625 -0.078125 C 0.378906 -0.148438 0.273438 -0.25 0.203125 -0.375 C 0.128906 -0.5 0.09375 -0.640625 0.09375 -0.796875 C 0.09375 -0.941406 0.128906 -1.078125 0.203125 -1.203125 C 0.273438 -1.328125 0.375 -1.425781 0.5 -1.5 C 0.632812 -1.570312 0.78125 -1.609375 0.9375 -1.609375 C 1.09375 -1.609375 1.234375 -1.570312 1.359375 -1.5 C 1.484375 -1.4375 1.582031 -1.34375 1.65625 -1.21875 C 1.726562 -1.09375 1.765625 -0.945312 1.765625 -0.78125 Z M 0.9375 -1.25 C 0.832031 -1.25 0.742188 -1.21875 0.671875 -1.15625 C 0.609375 -1.101562 0.566406 -1.023438 0.546875 -0.921875 L 1.328125 -0.921875 C 1.304688 -1.023438 1.257812 -1.101562 1.1875 -1.15625 C 1.125 -1.21875 1.039062 -1.25 0.9375 -1.25 Z M 0.9375 -1.25 "/></g></g></g><g fill="#ffffff" fill-opacity="1"><g transform="translate(70.656163, 3.264279)"><g><path d="M 0.96875 0.03125 C 0.800781 0.03125 0.648438 -0.00390625 0.515625 -0.078125 C 0.378906 -0.148438 0.273438 -0.25 0.203125 -0.375 C 0.128906 -0.5 0.09375 -0.640625 0.09375 -0.796875 C 0.09375 -0.953125 0.128906 -1.085938 0.203125 -1.203125 C 0.273438 -1.328125 0.378906 -1.425781 0.515625 -1.5 C 0.648438 -1.570312 0.800781 -1.609375 0.96875 -1.609375 C 1.132812 -1.609375 1.28125 -1.570312 1.40625 -1.5 C 1.53125 -1.425781 1.625 -1.328125 1.6875 -1.203125 L 1.328125 -1.015625 C 1.242188 -1.160156 1.125 -1.234375 0.96875 -1.234375 C 0.851562 -1.234375 0.753906 -1.191406 0.671875 -1.109375 C 0.597656 -1.035156 0.5625 -0.929688 0.5625 -0.796875 C 0.5625 -0.660156 0.597656 -0.550781 0.671875 -0.46875 C 0.753906 -0.394531 0.851562 -0.359375 0.96875 -0.359375 C 1.125 -0.359375 1.242188 -0.425781 1.328125 -0.5625 L 1.6875 -0.375 C 1.625 -0.25 1.53125 -0.148438 1.40625 -0.078125 C 1.28125 -0.00390625 1.132812 0.03125 0.96875 0.03125 Z M 0.96875 0.03125 "/></g></g></g><g fill="#ffffff" fill-opacity="1"><g transform="translate(72.395831, 3.264279)"><g><path d="M 1.234375 -0.078125 C 1.179688 -0.046875 1.125 -0.0195312 1.0625 0 C 1 0.0195312 0.929688 0.03125 0.859375 0.03125 C 0.671875 0.03125 0.523438 -0.015625 0.421875 -0.109375 C 0.316406 -0.210938 0.265625 -0.359375 0.265625 -0.546875 L 0.265625 -1.1875 L 0.03125 -1.1875 L 0.03125 -1.546875 L 0.265625 -1.546875 L 0.265625 -1.9375 L 0.71875 -1.9375 L 0.71875 -1.546875 L 1.125 -1.546875 L 1.125 -1.1875 L 0.71875 -1.1875 L 0.71875 -0.546875 C 0.71875 -0.484375 0.734375 -0.429688 0.765625 -0.390625 C 0.804688 -0.359375 0.859375 -0.34375 0.921875 -0.34375 C 0.992188 -0.34375 1.054688 -0.363281 1.109375 -0.40625 Z M 1.234375 -0.078125 "/></g></g></g><g clip-path="url(#a7b2b628d8)"><g fill="#ffffff" fill-opacity="1"><g transform="translate(73.676293, 3.264279)"><g><path d="M 0.390625 0.03125 C 0.304688 0.03125 0.234375 0.00390625 0.171875 -0.046875 C 0.117188 -0.109375 0.09375 -0.179688 0.09375 -0.265625 C 0.09375 -0.347656 0.117188 -0.414062 0.171875 -0.46875 C 0.234375 -0.519531 0.304688 -0.546875 0.390625 -0.546875 C 0.460938 -0.546875 0.523438 -0.519531 0.578125 -0.46875 C 0.640625 -0.414062 0.671875 -0.347656 0.671875 -0.265625 C 0.671875 -0.179688 0.640625 -0.109375 0.578125 -0.046875 C 0.523438 0.00390625 0.460938 0.03125 0.390625 0.03125 Z M 0.390625 0.03125 "/></g></g></g></g></g></g><g transform="matrix(1, 0, 0, 1, 28, 5)"><g clip-path="url(#4831f6578f)"><g fill="#ffffff" fill-opacity="1"><g transform="translate(0.882466, 12.582154)"><g><path d="M 6.796875 -4.828125 C 7.359375 -4.660156 7.769531 -4.394531 8.03125 -4.03125 C 8.300781 -3.664062 8.4375 -3.210938 8.4375 -2.671875 C 8.4375 -2.128906 8.304688 -1.671875 8.046875 -1.296875 C 7.785156 -0.921875 7.457031 -0.628906 7.0625 -0.421875 C 6.675781 -0.222656 6.285156 -0.0976562 5.890625 -0.046875 C 5.660156 -0.0234375 5.453125 -0.0078125 5.265625 0 C 5.085938 0 4.859375 0 4.578125 0 L 1.03125 0 L 1.03125 -8.890625 L 4.671875 -8.890625 C 4.910156 -8.890625 5.101562 -8.882812 5.25 -8.875 C 5.394531 -8.875 5.582031 -8.859375 5.8125 -8.828125 C 6.539062 -8.742188 7.101562 -8.488281 7.5 -8.0625 C 7.894531 -7.644531 8.09375 -7.144531 8.09375 -6.5625 C 8.09375 -6.164062 7.984375 -5.816406 7.765625 -5.515625 C 7.554688 -5.210938 7.234375 -4.984375 6.796875 -4.828125 Z M 3.34375 -7.078125 L 3.34375 -5.375 L 4.390625 -5.375 C 4.609375 -5.375 4.796875 -5.390625 4.953125 -5.421875 C 5.171875 -5.453125 5.34375 -5.523438 5.46875 -5.640625 C 5.601562 -5.765625 5.671875 -5.960938 5.671875 -6.234375 C 5.671875 -6.484375 5.609375 -6.671875 5.484375 -6.796875 C 5.359375 -6.921875 5.1875 -7.003906 4.96875 -7.046875 C 4.800781 -7.066406 4.609375 -7.078125 4.390625 -7.078125 Z M 5.171875 -1.8125 C 5.378906 -1.832031 5.570312 -1.921875 5.75 -2.078125 C 5.925781 -2.234375 6.015625 -2.457031 6.015625 -2.75 C 6.015625 -3.050781 5.921875 -3.28125 5.734375 -3.4375 C 5.554688 -3.59375 5.347656 -3.675781 5.109375 -3.6875 C 5.023438 -3.695312 4.929688 -3.703125 4.828125 -3.703125 C 4.734375 -3.703125 4.632812 -3.703125 4.53125 -3.703125 L 3.34375 -3.703125 L 3.34375 -1.796875 L 4.59375 -1.796875 C 4.695312 -1.796875 4.796875 -1.796875 4.890625 -1.796875 C 4.992188 -1.796875 5.085938 -1.800781 5.171875 -1.8125 Z M 5.171875 -1.8125 "/></g></g></g><g fill="#ffffff" fill-opacity="1"><g transform="translate(9.646685, 12.582154)"><g><path d="M 1.859375 -9.671875 C 2.210938 -9.671875 2.5 -9.566406 2.71875 -9.359375 C 2.9375 -9.160156 3.046875 -8.882812 3.046875 -8.53125 C 3.046875 -8.1875 2.9375 -7.910156 2.71875 -7.703125 C 2.5 -7.503906 2.210938 -7.40625 1.859375 -7.40625 C 1.492188 -7.40625 1.203125 -7.503906 0.984375 -7.703125 C 0.765625 -7.910156 0.65625 -8.1875 0.65625 -8.53125 C 0.65625 -8.882812 0.765625 -9.160156 0.984375 -9.359375 C 1.203125 -9.566406 1.492188 -9.671875 1.859375 -9.671875 Z M 3.015625 0 L 0.6875 0 L 0.6875 -6.875 L 3.015625 -6.875 Z M 3.015625 0 "/></g></g></g><g fill="#ffffff" fill-opacity="1"><g transform="translate(13.353139, 12.582154)"><g><path d="M 6.40625 -1.4375 L 6.40625 0 L 0.4375 0 L 0.4375 -1.359375 L 3.90625 -5.375 L 0.625 -5.375 L 0.625 -6.828125 L 6.359375 -6.828125 L 6.359375 -5.40625 L 2.921875 -1.4375 Z M 6.40625 -1.4375 "/></g></g></g><g fill="#ffffff" fill-opacity="1"><g transform="translate(20.122565, 12.582154)"><g><path d="M 6.453125 0 L 3.625 0 L 0.40625 -8.890625 L 2.9375 -8.890625 L 5.0625 -1.796875 L 7.203125 -8.890625 L 9.65625 -8.890625 Z M 6.453125 0 "/></g></g></g><g fill="#ffffff" fill-opacity="1"><g transform="translate(29.671831, 12.582154)"><g><path d="M 1.859375 -9.671875 C 2.210938 -9.671875 2.5 -9.566406 2.71875 -9.359375 C 2.9375 -9.160156 3.046875 -8.882812 3.046875 -8.53125 C 3.046875 -8.1875 2.9375 -7.910156 2.71875 -7.703125 C 2.5 -7.503906 2.210938 -7.40625 1.859375 -7.40625 C 1.492188 -7.40625 1.203125 -7.503906 0.984375 -7.703125 C 0.765625 -7.910156 0.65625 -8.1875 0.65625 -8.53125 C 0.65625 -8.882812 0.765625 -9.160156 0.984375 -9.359375 C 1.203125 -9.566406 1.492188 -9.671875 1.859375 -9.671875 Z M 3.015625 0 L 0.6875 0 L 0.6875 -6.875 L 3.015625 -6.875 Z M 3.015625 0 "/></g></g></g><g fill="#ffffff" fill-opacity="1"><g transform="translate(33.378285, 12.582154)"><g><path d="M 6.40625 -1.4375 L 6.40625 0 L 0.4375 0 L 0.4375 -1.359375 L 3.90625 -5.375 L 0.625 -5.375 L 0.625 -6.828125 L 6.359375 -6.828125 L 6.359375 -5.40625 L 2.921875 -1.4375 Z M 6.40625 -1.4375 "/></g></g></g><g fill="#ffffff" fill-opacity="1"><g transform="translate(40.149634, 12.582154)"><g><path d="M 4.796875 -9.0625 C 5.554688 -9.0625 6.191406 -8.929688 6.703125 -8.671875 C 7.222656 -8.410156 7.625 -8.050781 7.90625 -7.59375 C 8.1875 -7.144531 8.359375 -6.628906 8.421875 -6.046875 L 8.4375 -5.921875 L 7.328125 -5.921875 L 7.296875 -6.046875 C 7.171875 -6.679688 6.90625 -7.195312 6.5 -7.59375 C 6.09375 -7.988281 5.519531 -8.1875 4.78125 -8.1875 C 4.175781 -8.1875 3.648438 -8.023438 3.203125 -7.703125 C 2.765625 -7.378906 2.425781 -6.9375 2.1875 -6.375 C 1.957031 -5.8125 1.84375 -5.171875 1.84375 -4.453125 C 1.84375 -3.722656 1.957031 -3.070312 2.1875 -2.5 C 2.414062 -1.9375 2.742188 -1.492188 3.171875 -1.171875 C 3.609375 -0.847656 4.117188 -0.6875 4.703125 -0.6875 C 5.441406 -0.6875 6.015625 -0.882812 6.421875 -1.28125 C 6.828125 -1.675781 7.09375 -2.191406 7.21875 -2.828125 L 7.25 -2.96875 L 8.359375 -2.96875 L 8.34375 -2.828125 C 8.289062 -2.296875 8.117188 -1.800781 7.828125 -1.34375 C 7.535156 -0.882812 7.125 -0.515625 6.59375 -0.234375 C 6.070312 0.046875 5.421875 0.1875 4.640625 0.1875 C 3.773438 0.1875 3.039062 -0.015625 2.4375 -0.421875 C 1.84375 -0.828125 1.390625 -1.375 1.078125 -2.0625 C 0.765625 -2.757812 0.609375 -3.539062 0.609375 -4.40625 C 0.609375 -5.300781 0.78125 -6.097656 1.125 -6.796875 C 1.46875 -7.503906 1.957031 -8.054688 2.59375 -8.453125 C 3.226562 -8.859375 3.960938 -9.0625 4.796875 -9.0625 Z M 4.796875 -9.0625 "/></g></g></g><g fill="#ffffff" fill-opacity="1"><g transform="translate(49.145507, 12.582154)"><g><path d="M 4.859375 0 L 4.75 -0.984375 L 4.375 -0.25 C 4.144531 -0.0820312 3.882812 0.03125 3.59375 0.09375 C 3.300781 0.15625 2.992188 0.1875 2.671875 0.1875 C 2.253906 0.1875 1.878906 0.113281 1.546875 -0.03125 C 1.222656 -0.1875 0.960938 -0.410156 0.765625 -0.703125 C 0.566406 -0.992188 0.46875 -1.347656 0.46875 -1.765625 C 0.46875 -2.535156 0.769531 -3.117188 1.375 -3.515625 C 1.988281 -3.910156 2.960938 -4.109375 4.296875 -4.109375 L 4.734375 -4.109375 L 4.734375 -4.28125 C 4.734375 -4.425781 4.734375 -4.566406 4.734375 -4.703125 C 4.734375 -4.847656 4.726562 -4.984375 4.71875 -5.109375 C 4.6875 -5.429688 4.566406 -5.6875 4.359375 -5.875 C 4.160156 -6.0625 3.835938 -6.15625 3.390625 -6.15625 C 2.921875 -6.15625 2.566406 -6.03125 2.328125 -5.78125 C 2.097656 -5.539062 1.960938 -5.1875 1.921875 -4.71875 L 0.765625 -4.71875 C 0.816406 -5.445312 1.078125 -6.007812 1.546875 -6.40625 C 2.015625 -6.800781 2.628906 -7 3.390625 -7 C 4.203125 -7 4.789062 -6.835938 5.15625 -6.515625 C 5.53125 -6.191406 5.75 -5.753906 5.8125 -5.203125 C 5.820312 -5.066406 5.828125 -4.914062 5.828125 -4.75 C 5.835938 -4.59375 5.84375 -4.441406 5.84375 -4.296875 L 5.84375 -1.734375 C 5.84375 -1.484375 5.847656 -1.222656 5.859375 -0.953125 C 5.878906 -0.691406 5.914062 -0.375 5.96875 0 Z M 3.03125 -0.671875 C 3.550781 -0.671875 3.960938 -0.832031 4.265625 -1.15625 C 4.578125 -1.488281 4.734375 -1.96875 4.734375 -2.59375 L 4.734375 -3.28125 C 3.796875 -3.351562 3.050781 -3.28125 2.5 -3.0625 C 1.945312 -2.84375 1.671875 -2.441406 1.671875 -1.859375 C 1.671875 -1.441406 1.789062 -1.140625 2.03125 -0.953125 C 2.28125 -0.765625 2.613281 -0.671875 3.03125 -0.671875 Z M 3.03125 -0.671875 "/></g></g></g><g fill="#ffffff" fill-opacity="1"><g transform="translate(55.979283, 12.582154)"><g><path d="M 3.625 -6.984375 C 3.8125 -6.984375 3.96875 -6.953125 4.09375 -6.890625 L 4.09375 -6.046875 C 3.519531 -6.085938 3.035156 -5.929688 2.640625 -5.578125 C 2.253906 -5.234375 2.0625 -4.671875 2.0625 -3.890625 L 2.0625 0 L 0.953125 0 L 0.953125 -6.828125 L 2.0625 -6.828125 L 2.0625 -5.75 L 2.671875 -6.671875 C 2.972656 -6.878906 3.289062 -6.984375 3.625 -6.984375 Z M 3.625 -6.984375 "/></g></g></g><g fill="#ffffff" fill-opacity="1"><g transform="translate(60.226261, 12.582154)"><g><path d="M 6.90625 -9.46875 L 6.90625 0 L 5.8125 0 L 5.8125 -1.09375 L 5.296875 -0.359375 C 5.109375 -0.191406 4.847656 -0.0625 4.515625 0.03125 C 4.179688 0.132812 3.835938 0.1875 3.484375 0.1875 C 2.828125 0.1875 2.265625 0.0351562 1.796875 -0.265625 C 1.335938 -0.578125 0.988281 -0.992188 0.75 -1.515625 C 0.507812 -2.046875 0.390625 -2.644531 0.390625 -3.3125 C 0.390625 -4.15625 0.539062 -4.847656 0.84375 -5.390625 C 1.15625 -5.929688 1.566406 -6.332031 2.078125 -6.59375 C 2.585938 -6.863281 3.132812 -7 3.71875 -7 C 4 -7 4.296875 -6.957031 4.609375 -6.875 C 4.929688 -6.800781 5.179688 -6.691406 5.359375 -6.546875 L 5.8125 -5.890625 L 5.8125 -9.46875 Z M 3.65625 -0.671875 C 4.03125 -0.671875 4.378906 -0.757812 4.703125 -0.9375 C 5.035156 -1.113281 5.300781 -1.394531 5.5 -1.78125 C 5.707031 -2.175781 5.8125 -2.695312 5.8125 -3.34375 L 5.8125 -3.71875 C 5.8125 -4.3125 5.703125 -4.785156 5.484375 -5.140625 C 5.273438 -5.492188 5.007812 -5.75 4.6875 -5.90625 C 4.363281 -6.070312 4.039062 -6.15625 3.71875 -6.15625 C 3.113281 -6.15625 2.609375 -5.925781 2.203125 -5.46875 C 1.796875 -5.007812 1.59375 -4.332031 1.59375 -3.4375 C 1.59375 -2.925781 1.671875 -2.460938 1.828125 -2.046875 C 1.984375 -1.628906 2.210938 -1.296875 2.515625 -1.046875 C 2.816406 -0.796875 3.195312 -0.671875 3.65625 -0.671875 Z M 3.65625 -0.671875 "/></g></g></g><g fill="#ffffff" fill-opacity="1"><g transform="translate(68.141084, 12.582154)"><g><path d="M 2.9375 -7 C 3.695312 -7 4.285156 -6.800781 4.703125 -6.40625 C 5.128906 -6.007812 5.378906 -5.5 5.453125 -4.875 L 4.28125 -4.875 C 4.207031 -5.28125 4.050781 -5.59375 3.8125 -5.8125 C 3.570312 -6.039062 3.25 -6.15625 2.84375 -6.15625 C 2.457031 -6.15625 2.171875 -6.0625 1.984375 -5.875 C 1.804688 -5.6875 1.71875 -5.441406 1.71875 -5.140625 C 1.71875 -4.796875 1.847656 -4.539062 2.109375 -4.375 C 2.378906 -4.207031 2.742188 -4.0625 3.203125 -3.9375 C 3.992188 -3.726562 4.578125 -3.457031 4.953125 -3.125 C 5.328125 -2.789062 5.515625 -2.332031 5.515625 -1.75 C 5.515625 -1.320312 5.40625 -0.960938 5.1875 -0.671875 C 4.96875 -0.390625 4.664062 -0.175781 4.28125 -0.03125 C 3.894531 0.113281 3.460938 0.1875 2.984375 0.1875 C 2.285156 0.1875 1.691406 0.015625 1.203125 -0.328125 C 0.710938 -0.671875 0.414062 -1.234375 0.3125 -2.015625 L 1.46875 -2.015625 C 1.5625 -1.515625 1.75 -1.164062 2.03125 -0.96875 C 2.320312 -0.769531 2.664062 -0.671875 3.0625 -0.671875 C 3.4375 -0.671875 3.75 -0.753906 4 -0.921875 C 4.257812 -1.085938 4.390625 -1.332031 4.390625 -1.65625 C 4.390625 -1.988281 4.265625 -2.253906 4.015625 -2.453125 C 3.765625 -2.648438 3.351562 -2.820312 2.78125 -2.96875 C 2.375 -3.082031 2.003906 -3.21875 1.671875 -3.375 C 1.335938 -3.539062 1.070312 -3.753906 0.875 -4.015625 C 0.675781 -4.285156 0.578125 -4.617188 0.578125 -5.015625 C 0.578125 -5.640625 0.789062 -6.125 1.21875 -6.46875 C 1.65625 -6.820312 2.226562 -7 2.9375 -7 Z M 2.9375 -7 "/></g></g></g></g></g></svg>