<svg xmlns="http://www.w3.org/2000/svg" xmlns:xlink="http://www.w3.org/1999/xlink" width="512" zoomAndPan="magnify" viewBox="0 0 384 383.999986" height="512" preserveAspectRatio="xMidYMid meet" version="1.0"><defs><g/><clipPath id="13f025cf7c"><path d="M 17.320312 14 L 19 14 L 19 16 L 17.320312 16 Z M 17.320312 14 " clip-rule="nonzero"/></clipPath><clipPath id="b9462ae0db"><path d="M 19 11.308594 L 22.570312 11.308594 L 22.570312 18.808594 L 19 18.808594 Z M 19 11.308594 " clip-rule="nonzero"/></clipPath><clipPath id="0b666b7a9c"><path d="M 0.199219 3 L 9.558594 3 L 9.558594 15 L 0.199219 15 Z M 0.199219 3 " clip-rule="nonzero"/></clipPath><clipPath id="09ac6a4c42"><rect x="0" width="10" y="0" height="19"/></clipPath><clipPath id="0fb67444a6"><path d="M 26.460938 25.71875 L 357.539062 25.71875 L 357.539062 359 L 26.460938 359 Z M 26.460938 25.71875 " clip-rule="nonzero"/></clipPath><clipPath id="5e30dc66e4"><path d="M 63.960938 25.71875 L 320.039062 25.71875 C 329.984375 25.71875 339.523438 29.667969 346.554688 36.703125 C 353.585938 43.734375 357.539062 53.273438 357.539062 63.21875 L 357.539062 320.78125 C 357.539062 330.726562 353.585938 340.265625 346.554688 347.296875 C 339.523438 354.332031 329.984375 358.28125 320.039062 358.28125 L 63.960938 358.28125 C 54.015625 358.28125 44.476562 354.332031 37.445312 347.296875 C 30.414062 340.265625 26.460938 330.726562 26.460938 320.78125 L 26.460938 63.21875 C 26.460938 53.273438 30.414062 43.734375 37.445312 36.703125 C 44.476562 29.667969 54.015625 25.71875 63.960938 25.71875 Z M 63.960938 25.71875 " clip-rule="nonzero"/></clipPath><clipPath id="9908392d41"><path d="M 0.460938 0.71875 L 331.539062 0.71875 L 331.539062 333.320312 L 0.460938 333.320312 Z M 0.460938 0.71875 " clip-rule="nonzero"/></clipPath><clipPath id="d12ac160f2"><path d="M 37.960938 0.71875 L 294.039062 0.71875 C 303.984375 0.71875 313.523438 4.667969 320.554688 11.703125 C 327.585938 18.734375 331.539062 28.273438 331.539062 38.21875 L 331.539062 295.78125 C 331.539062 305.726562 327.585938 315.265625 320.554688 322.296875 C 313.523438 329.332031 303.984375 333.28125 294.039062 333.28125 L 37.960938 333.28125 C 28.015625 333.28125 18.476562 329.332031 11.445312 322.296875 C 4.414062 315.265625 0.460938 305.726562 0.460938 295.78125 L 0.460938 38.21875 C 0.460938 28.273438 4.414062 18.734375 11.445312 11.703125 C 18.476562 4.667969 28.015625 0.71875 37.960938 0.71875 Z M 37.960938 0.71875 " clip-rule="nonzero"/></clipPath><clipPath id="4ecd080566"><rect x="0" width="332" y="0" height="334"/></clipPath><clipPath id="9bd4dd5326"><path d="M 229.722656 178 L 248 178 L 248 206 L 229.722656 206 Z M 229.722656 178 " clip-rule="nonzero"/></clipPath><clipPath id="bb261dd29c"><path d="M 275.472656 133.429688 L 266.992188 133.429688 C 246.28125 133.429688 229.492188 150.21875 229.492188 170.929688 L 229.492188 213.0625 C 229.492188 233.769531 246.28125 250.5625 266.992188 250.5625 L 275.472656 250.5625 C 296.183594 250.5625 312.972656 233.769531 312.972656 213.0625 L 312.972656 170.929688 C 312.972656 150.21875 296.183594 133.429688 275.472656 133.429688 Z M 275.472656 133.429688 " clip-rule="nonzero"/></clipPath><clipPath id="ec0d37327d"><path d="M 245 154 L 279 154 L 279 230 L 245 230 Z M 245 154 " clip-rule="nonzero"/></clipPath><clipPath id="b378357562"><path d="M 275.472656 133.429688 L 266.992188 133.429688 C 246.28125 133.429688 229.492188 150.21875 229.492188 170.929688 L 229.492188 213.0625 C 229.492188 233.769531 246.28125 250.5625 266.992188 250.5625 L 275.472656 250.5625 C 296.183594 250.5625 312.972656 233.769531 312.972656 213.0625 L 312.972656 170.929688 C 312.972656 150.21875 296.183594 133.429688 275.472656 133.429688 Z M 275.472656 133.429688 " clip-rule="nonzero"/></clipPath><clipPath id="2c24b8f5f8"><path d="M 267 134 L 307 134 L 307 250 L 267 250 Z M 267 134 " clip-rule="nonzero"/></clipPath><clipPath id="d7c5663aea"><path d="M 275.472656 133.429688 L 266.992188 133.429688 C 246.28125 133.429688 229.492188 150.21875 229.492188 170.929688 L 229.492188 213.0625 C 229.492188 233.769531 246.28125 250.5625 266.992188 250.5625 L 275.472656 250.5625 C 296.183594 250.5625 312.972656 233.769531 312.972656 213.0625 L 312.972656 170.929688 C 312.972656 150.21875 296.183594 133.429688 275.472656 133.429688 Z M 275.472656 133.429688 " clip-rule="nonzero"/></clipPath><clipPath id="2081dc49e4"><rect x="0" width="147" y="0" height="290"/></clipPath></defs><rect x="-38.4" width="460.8" fill="#ffffff" y="-38.399999" height="460.799983" fill-opacity="1"/><rect x="-38.4" width="460.8" fill="#153e90" y="-38.399999" height="460.799983" fill-opacity="1"/><g clip-path="url(#13f025cf7c)"><path fill="#153e90" d="M 18.445312 15 C 18.445312 15.457031 18.339844 15.84375 17.882812 15.84375 C 17.425781 15.84375 17.320312 15.457031 17.320312 15 C 17.320312 14.542969 17.390625 14.15625 17.882812 14.15625 C 18.375 14.15625 18.445312 14.542969 18.445312 15 Z M 18.445312 15 " fill-opacity="1" fill-rule="nonzero"/></g><path fill="#153e90" d="M 19.570312 17.039062 L 19.675781 16.933594 C 20.660156 15.84375 20.625 14.15625 19.570312 13.101562 L 19.253906 12.785156 C 19.042969 12.574219 18.691406 12.574219 18.480469 12.785156 C 18.269531 12.996094 18.269531 13.347656 18.480469 13.558594 L 18.761719 13.839844 C 19.429688 14.507812 19.429688 15.597656 18.761719 16.265625 L 18.550781 16.476562 C 18.339844 16.6875 18.339844 17.003906 18.550781 17.214844 C 18.65625 17.320312 18.796875 17.355469 18.9375 17.355469 C 19.078125 17.355469 19.21875 17.285156 19.324219 17.214844 Z M 19.570312 17.039062 " fill-opacity="1" fill-rule="nonzero"/><g clip-path="url(#b9462ae0db)"><path fill="#153e90" d="M 20.625 18.515625 L 21.011719 18.128906 C 22.558594 16.300781 22.523438 13.558594 20.835938 11.835938 C 20.835938 11.835938 20.835938 11.800781 20.800781 11.800781 L 20.519531 11.484375 C 20.34375 11.308594 20.027344 11.308594 19.816406 11.484375 C 19.640625 11.660156 19.640625 11.976562 19.816406 12.1875 L 20.132812 12.503906 C 21.503906 13.910156 21.503906 16.160156 20.167969 17.566406 L 19.921875 17.8125 C 19.746094 17.988281 19.746094 18.304688 19.921875 18.515625 C 20.097656 18.691406 20.414062 18.691406 20.625 18.515625 Z M 20.625 18.515625 " fill-opacity="1" fill-rule="nonzero"/></g><g transform="matrix(1, 0, 0, 1, 7, 6)"><g clip-path="url(#09ac6a4c42)"><g clip-path="url(#0b666b7a9c)"><g fill="#153e90" fill-opacity="1"><g transform="translate(0.235526, 12.670379)"><g><path d="M 2.234375 1.625 L 0.625 0.03125 L 0.640625 -9 L 4.390625 -9 C 4.859375 -9 5.269531 -8.925781 5.625 -8.78125 C 5.988281 -8.632812 6.273438 -8.457031 6.484375 -8.25 L 7.765625 -6.984375 C 7.921875 -6.828125 8.0625 -6.660156 8.1875 -6.484375 C 8.320312 -6.304688 8.425781 -6.109375 8.5 -5.890625 C 8.582031 -5.671875 8.625 -5.414062 8.625 -5.125 C 8.625 -4.757812 8.546875 -4.414062 8.390625 -4.09375 C 8.234375 -3.78125 8.015625 -3.519531 7.734375 -3.3125 L 8.078125 -2.96875 C 8.378906 -2.664062 8.597656 -2.367188 8.734375 -2.078125 C 8.867188 -1.785156 8.9375 -1.460938 8.9375 -1.109375 C 8.9375 -0.566406 8.8125 -0.09375 8.5625 0.3125 C 8.3125 0.726562 7.957031 1.050781 7.5 1.28125 C 7.050781 1.507812 6.523438 1.625 5.921875 1.625 Z M 0.8125 -0.09375 L 4.375 -0.09375 C 4.96875 -0.09375 5.484375 -0.191406 5.921875 -0.390625 C 6.367188 -0.597656 6.710938 -0.882812 6.953125 -1.25 C 7.203125 -1.625 7.328125 -2.054688 7.328125 -2.546875 C 7.328125 -3.035156 7.195312 -3.453125 6.9375 -3.796875 C 6.6875 -4.148438 6.316406 -4.425781 5.828125 -4.625 C 6.210938 -4.832031 6.503906 -5.097656 6.703125 -5.421875 C 6.910156 -5.742188 7.015625 -6.117188 7.015625 -6.546875 C 7.015625 -6.992188 6.898438 -7.390625 6.671875 -7.734375 C 6.453125 -8.078125 6.144531 -8.34375 5.75 -8.53125 C 5.363281 -8.726562 4.910156 -8.828125 4.390625 -8.828125 L 0.828125 -8.828125 Z M 1.875 -5.03125 L 1.875 -7.875 L 4.3125 -7.875 C 4.625 -7.875 4.898438 -7.816406 5.140625 -7.703125 C 5.378906 -7.585938 5.566406 -7.425781 5.703125 -7.21875 C 5.835938 -7.007812 5.90625 -6.765625 5.90625 -6.484375 C 5.90625 -6.191406 5.835938 -5.9375 5.703125 -5.71875 C 5.566406 -5.5 5.378906 -5.328125 5.140625 -5.203125 C 4.898438 -5.085938 4.613281 -5.03125 4.28125 -5.03125 Z M 3.515625 -5.203125 L 4.28125 -5.203125 C 4.6875 -5.203125 5.015625 -5.296875 5.265625 -5.484375 C 5.523438 -5.679688 5.675781 -5.945312 5.71875 -6.28125 L 3.515625 -6.28125 Z M 1.875 -1.046875 L 1.875 -4.109375 L 4.4375 -4.109375 C 4.800781 -4.109375 5.113281 -4.039062 5.375 -3.90625 C 5.644531 -3.78125 5.851562 -3.601562 6 -3.375 C 6.144531 -3.144531 6.21875 -2.875 6.21875 -2.5625 C 6.21875 -2.09375 6.03125 -1.722656 5.65625 -1.453125 C 5.289062 -1.179688 4.785156 -1.046875 4.140625 -1.046875 Z M 3.515625 -1.21875 L 4.140625 -1.21875 C 4.722656 -1.21875 5.179688 -1.332031 5.515625 -1.5625 C 5.847656 -1.789062 6.019531 -2.109375 6.03125 -2.515625 L 3.515625 -2.515625 Z M 3.515625 -1.21875 "/></g></g></g></g></g></g><g clip-path="url(#0fb67444a6)"><g clip-path="url(#5e30dc66e4)"><g transform="matrix(1, 0, 0, 1, 26, 25)"><g clip-path="url(#4ecd080566)"><g clip-path="url(#9908392d41)"><g clip-path="url(#d12ac160f2)"><path fill="#ffffff" d="M 0.460938 0.71875 L 331.539062 0.71875 L 331.539062 333.089844 L 0.460938 333.089844 Z M 0.460938 0.71875 " fill-opacity="1" fill-rule="nonzero"/></g></g></g></g></g></g><g clip-path="url(#9bd4dd5326)"><g clip-path="url(#bb261dd29c)"><path fill="#153e90" d="M 247.53125 191.996094 C 247.53125 199.246094 245.859375 205.382812 238.605469 205.382812 C 231.355469 205.382812 229.683594 199.246094 229.683594 191.996094 C 229.683594 184.746094 230.796875 178.609375 238.605469 178.609375 C 246.414062 178.609375 247.53125 184.746094 247.53125 191.996094 Z M 247.53125 191.996094 " fill-opacity="1" fill-rule="nonzero"/></g></g><g clip-path="url(#ec0d37327d)"><g clip-path="url(#b378357562)"><path fill="#153e90" d="M 265.378906 224.34375 L 265.9375 223.789062 L 266.496094 223.230469 L 267.050781 222.671875 C 282.667969 205.382812 282.113281 178.609375 265.378906 161.875 L 260.359375 156.855469 C 257.011719 153.511719 251.433594 153.511719 248.089844 156.855469 C 244.742188 160.203125 244.742188 165.78125 248.089844 169.128906 L 252.550781 173.589844 C 263.148438 184.1875 263.148438 201.476562 252.550781 212.074219 L 249.203125 215.421875 C 245.859375 218.769531 245.859375 223.789062 249.203125 227.132812 C 250.878906 228.808594 253.109375 229.367188 255.339844 229.367188 C 257.570312 229.367188 259.800781 228.25 261.476562 227.132812 Z M 265.378906 224.34375 " fill-opacity="1" fill-rule="nonzero"/></g></g><g clip-path="url(#2c24b8f5f8)"><g clip-path="url(#d7c5663aea)"><path fill="#153e90" d="M 282.113281 247.769531 L 284.902344 244.984375 L 287.132812 242.75 L 288.246094 241.636719 C 312.789062 212.632812 312.230469 169.128906 285.457031 141.796875 C 285.457031 141.796875 285.457031 141.238281 284.902344 141.238281 L 280.4375 136.21875 C 277.648438 133.429688 272.628906 133.429688 269.285156 136.21875 C 266.496094 139.007812 266.496094 144.027344 269.285156 147.375 L 274.304688 152.394531 C 296.054688 174.707031 296.054688 210.402344 274.859375 232.710938 L 270.957031 236.617188 C 268.167969 239.40625 268.167969 244.425781 270.957031 247.769531 C 273.746094 250.558594 278.765625 250.558594 282.113281 247.769531 Z M 282.113281 247.769531 " fill-opacity="1" fill-rule="nonzero"/></g></g><g transform="matrix(1, 0, 0, 1, 69, 56)"><g clip-path="url(#2081dc49e4)"><g fill="#153e90" fill-opacity="1"><g transform="translate(0.714596, 194.211415)"><g><path d="M 35.453125 25.765625 L 10 0.609375 L 10.203125 -142.84375 L 69.609375 -142.84375 C 77.015625 -142.84375 83.5625 -141.679688 89.25 -139.359375 C 94.9375 -137.035156 99.46875 -134.191406 102.84375 -130.828125 L 123.140625 -110.71875 C 125.703125 -108.226562 127.992188 -105.601562 130.015625 -102.84375 C 132.035156 -100.082031 133.648438 -96.96875 134.859375 -93.5 C 136.078125 -90.03125 136.6875 -85.9375 136.6875 -81.21875 C 136.6875 -75.5 135.472656 -70.128906 133.046875 -65.109375 C 130.617188 -60.085938 127.179688 -55.859375 122.734375 -52.421875 L 128.09375 -47.078125 C 132.945312 -42.222656 136.429688 -37.503906 138.546875 -32.921875 C 140.671875 -28.347656 141.734375 -23.265625 141.734375 -17.671875 C 141.734375 -8.984375 139.757812 -1.375 135.8125 5.15625 C 131.875 11.6875 126.316406 16.753906 119.140625 20.359375 C 111.972656 23.960938 103.539062 25.765625 93.84375 25.765625 Z M 12.828125 -1.421875 L 69.5 -1.421875 C 78.863281 -1.421875 87.046875 -3.050781 94.046875 -6.3125 C 101.054688 -9.582031 106.515625 -14.128906 110.421875 -19.953125 C 114.328125 -25.773438 116.28125 -32.5625 116.28125 -40.3125 C 116.28125 -48.125 114.238281 -54.804688 110.15625 -60.359375 C 106.082031 -65.910156 100.207031 -70.269531 92.53125 -73.4375 C 98.53125 -76.738281 103.144531 -80.945312 106.375 -86.0625 C 109.601562 -91.1875 111.21875 -97.113281 111.21875 -103.84375 C 111.21875 -110.988281 109.445312 -117.269531 105.90625 -122.6875 C 102.375 -128.113281 97.492188 -132.359375 91.265625 -135.421875 C 85.035156 -138.484375 77.816406 -140.015625 69.609375 -140.015625 L 13.03125 -140.015625 Z M 29.703125 -79.703125 L 29.703125 -124.859375 L 68.296875 -124.859375 C 73.335938 -124.859375 77.757812 -123.945312 81.5625 -122.125 C 85.375 -120.3125 88.359375 -117.753906 90.515625 -114.453125 C 92.671875 -111.148438 93.75 -107.3125 93.75 -102.9375 C 93.75 -98.289062 92.671875 -94.234375 90.515625 -90.765625 C 88.359375 -87.296875 85.359375 -84.582031 81.515625 -82.625 C 77.679688 -80.675781 73.171875 -79.703125 67.984375 -79.703125 Z M 55.859375 -82.53125 L 67.984375 -82.53125 C 74.316406 -82.53125 79.503906 -84.0625 83.546875 -87.125 C 87.585938 -90.195312 89.976562 -94.390625 90.71875 -99.703125 L 55.859375 -99.703125 Z M 29.703125 -16.5625 L 29.703125 -65.0625 L 70.40625 -65.0625 C 76.132812 -65.0625 81.101562 -64.050781 85.3125 -62.03125 C 89.519531 -60.007812 92.785156 -57.175781 95.109375 -53.53125 C 97.429688 -49.894531 98.59375 -45.625 98.59375 -40.71875 C 98.59375 -33.164062 95.679688 -27.25 89.859375 -22.96875 C 84.035156 -18.695312 76.003906 -16.5625 65.765625 -16.5625 Z M 55.859375 -19.390625 L 65.765625 -19.390625 C 74.992188 -19.390625 82.234375 -21.191406 87.484375 -24.796875 C 92.734375 -28.398438 95.492188 -33.4375 95.765625 -39.90625 L 55.859375 -39.90625 Z M 55.859375 -19.390625 "/></g></g></g></g></g></svg>